<?xml version="1.0" encoding="UTF-8"?>
<svg id="Calque_1" data-name="Calque 1" xmlns="http://www.w3.org/2000/svg" viewBox="0 0 976.5855 602.5879">
  <defs>
    <style>
      .cls-1 {
        stroke-width: .5px;
      }

      .cls-1, .cls-2, .cls-3, .cls-4, .cls-5, .cls-6, .cls-7, .cls-8, .cls-9, .cls-10, .cls-11, .cls-12 {
        stroke: #1d1d1b;
        stroke-miterlimit: 10;
      }

      .cls-1, .cls-2, .cls-3, .cls-4, .cls-5, .cls-6, .cls-8, .cls-10, .cls-11 {
        fill: none;
      }

      .cls-2 {
        stroke-dasharray: 0 0 6.0122 6.0122;
      }

      .cls-3, .cls-11 {
        stroke-linecap: round;
      }

      .cls-4 {
        stroke-dasharray: 0 0 158.537 158.537;
        stroke-width: 4px;
      }

      .cls-5 {
        stroke-dasharray: 0 0 1 1.0032;
      }

      .cls-7 {
        stroke-width: .25px;
      }

      .cls-7, .cls-12, .cls-13 {
        fill: #1d1d1b;
      }

      .cls-8 {
        stroke-width: 2px;
      }

      .cls-9 {
        fill: #fff;
      }

      .cls-10 {
        stroke-dasharray: 0 0 3 2.0032;
        stroke-width: 3px;
      }

      .cls-11 {
        stroke-dasharray: 0 0 0 0 0 0 20 20 5 5 5 5;
      }
    </style>
  </defs>
  <path class="cls-13" d="m644.5377,259.2112c.8032-.5328,1.2647-1.189,1.5892-2.0852.0318-.0878.2453-.5596.2086-.6264.0468.0852-.2163.4254-.016.095.0641-.1058.1216-.2159.1852-.3221.6512-1.0863,1.208-2.1385,1.5667-3.3665.3701-1.267.6334-2.5309.6681-3.856.0075-.287.0107-.5741.0279-.8607.0041-.0683.0578-.5371.0046-.18-.051.3421.0168-.0432.0324-.1096.0259-.11.0712-.2195.0929-.3297.0555-.2821-.2191.3591-.0549.1275.0448-.0631.2588-.3729.0304-.0983-.1159.1388-.1285.1587-.0381.0598.1306-.1302.0672-.0907-.1903.1184.541-.4068.962-.8152,1.1489-1.4941.1648-.5984.0904-1.3953-.252-1.9264-.6642-1.0303-2.3026-1.7376-3.4205-.8969-1.1312.8508-1.9312,1.941-2.1897,3.3616-.128.7034-.171,1.4083-.1891,2.1206-.0073.2872-.0177.5735-.0373.8601-.0194.2832.0353.1833.0037-.018.0241.1532-.0794.3885-.1144.5347-.1338.559-.2927,1.116-.4667,1.6639-.0424.1335-.0998.2665-.1356.4015-.0898.3387.1791-.3175.0088-.0112-.1231.2214-.2349.4463-.3677.6629-.2595.4234-.542.8332-.7557,1.2827-.1691.3555-.3263.7258-.4496,1.1005-.0327.0994-.07.2008-.0965.3019-.0449.1285-.0328.101.0362-.0825.102-.3225.3176-.5708.6468-.7451-1.0882.7218-1.6572,2.2412-.8969,3.4205.6997,1.0853,2.2549,1.67,3.4205.8969h0Z"/>
  <path class="cls-13" d="m647.1411,256.4745c2.0846-2.0288,3.2937-4.9953,3.1583-7.9083-.0306-.6593-.2579-1.2934-.7322-1.7678-.4336-.4336-1.145-.7601-1.7678-.7322-.6466.029-1.3171.2413-1.7678.7322-.4369.476-.7631,1.1024-.7322,1.7678.023.4943.0008.9849-.0644,1.4754l.0893-.6646c-.1.6859-.2828,1.3509-.5452,1.9924l.252-.5972c-.2831.6688-.6462,1.2935-1.0902,1.8683l.3909-.506c-.2252.284-.4665.5517-.7262.8045-.9388.9137-.9857,2.6306,0,3.5355,1.0092.9264,2.5338.9749,3.5355,0h0Z"/>
  <path class="cls-13" d="m648.1141,250.6607c-1.0065.7383-2.191,1.1424-3.2872,1.7192-1.2928.6803-2.5367,1.6786-3.2206,2.9951-.3084.5938-.4331,1.2689-.252,1.9264.1597.5799.6081,1.2083,1.1489,1.4941.5802.3065,1.2831.4602,1.9264.252.6024-.1949,1.1934-.5701,1.4941-1.1489.1084-.2087.2335-.4033.3765-.59l-.3909.506c.24-.2988.5145-.5592.8157-.7956l-.506.3909c1.3512-1.0277,3.0524-1.4297,4.4187-2.4319.5417-.3973.9641-.8228,1.1489-1.4941.1648-.5984.0904-1.3953-.252-1.9264-.3442-.5338-.8566-1.0037-1.4941-1.1489-.6165-.1404-1.3937-.1387-1.9264.252h0Z"/>
  <path class="cls-13" d="m642.6594,253.9251c.6206-.1933,1.0688-.8376,1.0342-1.4866"/>
  <path class="cls-13" d="m703.1075,330.5396c-.3475.1911-.7871-.1733-1.158-.0331-1.0244.3872-1.7715,1.4188-1.8201,2.5128-.0198.4475.079.9202.3759,1.2557.2835.3203.7047.4747,1.1051.6252,1.2631.4747,2.5299,1.0505,3.4697,2.0188s1.4954,2.4099,1.0914,3.6974c-.717-.781-1.7693-1.2431-2.8295-1.2426-.4606.3543-.5251,1.0644-.271,1.587s.7531.8838,1.2703,1.1487c1.7038.8726,3.7142.9076,5.5071,1.5782s3.4898,2.4818,2.9076,4.3053c-.3957-.4438-.7913-.8876-1.187-1.3314-.6689,2.6046-2.4845,4.8927-4.8689,6.136.5636-1.1145,1.1367-2.26,1.271-3.5016s-.2622-2.6199-1.295-3.3221c-.9635-.6551-2.2199-.592-3.3794-.7071s-2.4789-.602-2.7963-1.7231c-.0943-.333-.0856-.6859-.145-1.0268-.188-1.079-1.0572-1.9457-2.0566-2.3938-1.3312-.5968-3.0385-.4933-4.0909.517s-1.1228,2.9688.0382,3.8521c-1.0302-.2133-2.1349.7087-2.1092,1.7605-.1003-1.1843-.2006-2.3687-.3009-3.553-.1331-1.5717-.3866-3.3587-1.6946-4.2402-1.5491-1.044-3.7289-.1686-4.9976,1.2026.4611-1.1046-.338-2.4604-1.4731-2.8405s-2.4237.0575-3.3227.8479-1.4711,1.8838-1.9418,2.9844c-.5596-1.5907-2.0552-2.8116-3.7257-3.0414-2.1461-.2953-3.6948,1.0062-5.2444,2.5201s-2.7548,3.3408-4.1983,4.9561c-1.2767,1.4285-2.8521,2.7436-4.7465,3.029s-4.0955-.8322-4.4112-2.7219c1.2033,2.0087,4.2914,2.8292,6.0052,1.2338.8895-.828,1.1418-2.4952.1245-3.1599-.4554-.2976-1.0321-.3152-1.5538-.4695-1.5485-.4581-2.5072-2.3327-1.9723-3.8564.0646,1.0228.4263,2.2035,1.3962,2.5348,1.2156.4153,2.4506-.9948,2.2951-2.2699s-1.2132-2.2535-2.3241-2.8986c-1.0506-.6101-2.3003-1.038-3.4748-.7273s-2.134,1.5945-1.7356,2.7422c-.7931-.5549-.576-1.7755-.202-2.6684s.8017-1.981.2206-2.7551c-.8343-1.1112-2.7138-.3234-3.9221-1.0095.3722.0351.667-.3706.6535-.7442s-.2393-.7029-.4704-.9968c-2.1346-2.7153-5.5114-4.4122-8.9641-4.5045.6438.1016,1.1973-.6293,1.0908-1.2723s-.68-1.1232-1.2952-1.3383c-1.624-.5677-3.6175.6132-3.8998,2.3103-.4963-1.8186.2136-3.9056,1.716-5.0442-.4319-.2948-1.0384-.1775-1.4723.1143s-.7467.7263-1.0973,1.1143c-1.5468,1.7123-4.0014,2.5526-6.273,2.1476s-4.2846-2.0417-5.1445-4.183c1.5654,1.8522,4.2102,2.8438,6.5296,2.1356s4.012-3.2781,3.4373-5.6342c-.455-1.8652-2.6868-2.1613-4.6011-2.0158,1.2067.0328,2.7828-.2152,2.9928-1.4039.2017-1.1412-1.1054-1.9344-2.2242-2.2363-5.0811-1.3712-10.8449.1799-14.5516,3.9159.8151-1.4304,1.9595-2.6717,3.3191-3.6-2.0459.2699-4.1992.4806-6.1114-.2952s-3.4511-2.8694-2.8938-4.8563c.4629,1.411,1.9805,2.3951,3.4575,2.2422.2059-.0213.4189-.0662.5799-.1964.51-.4123.1477-1.2232-.2199-1.7664-.9547-1.4105-1.7801-3.0182-1.7164-4.7203s1.2986-3.4562,2.998-3.5701c-1.1285.6926-1.5437,2.2676-1.0627,3.5012s1.7201,2.0834,3.0292,2.2819c.6315.0958,1.3537.0241,1.7821-.4496s.2836-1.4174-.3432-1.5404c1.7793-.0422,3.3918,2.0653,5.0089,1.3218.9222-.424,1.2379-1.6475.9637-2.6247s-.9844-1.7624-1.6723-2.5087c.4852-.1511.9704-.3022,1.4556-.4533-.4361.5664.0073,1.4898.6973,1.6766s1.4327-.2086,1.8631-.7794.6134-1.2855.7765-1.9814c.2358-1.0059.4498-2.0634.1812-3.061-.4866-1.8074-2.4308-2.8675-4.2892-3.0915s-3.7311.1728-5.6024.2127c2.0219.1535,3.8929-1.9185,3.5346-3.9142.8879.5644,1.8247,1.1456,2.8742,1.218s2.2282-.5583,2.3829-1.5989c.2322-1.5615-1.6683-2.4278-2.866-3.4562-1.7081-1.4668-2.1785-4.1845-1.0626-6.14.281,1.8705,1.9004,3.4578,3.7761,3.7014.3094.0402.6398.0435.9145-.1043.3586-.1929.5445-.5985.6608-.9887.8773-2.9452-.8807-6.0119-2.8781-8.3474-2.1504-2.5145-4.6704-4.7124-7.4539-6.5011.5203-.1569,1.097-.1184,1.5918.1064-2.282-4.3653-6.4235-7.7186-11.168-9.0424,2.7526-1.8306,3.6815-6.1252,6.9089-6.8407-1.6187.4738-2.8896,1.9652-3.1007,3.6385-.0418.331-.0247.7158.2311.93.1954.1637.472.177.7268.1826,1.7022.0372,3.4045.0744,5.1067.1116-.8322-.11-1.2176,1.1878-.6795,1.8321s1.4697.7543,2.3067.8178c.4174.0317.9131.0291,1.157-.3111.1992-.2779.1557-.7014.4154-.9238.4289-.3672,1.0176.1992,1.3092.6827.7729,1.2817,1.8012,2.5481,3.2464,2.9375s3.2921-.5626,3.2944-2.0593c1.0471,1.9182,3.242,3.1481,5.4247,3.0399.5411-.0268,1.0974-.1373,1.5368-.4541.8774-.6327,1.0303-1.957.5699-2.9359s-1.3915-1.6557-2.3614-2.1346c1.3926-.0243,2.785.5651,3.737,1.5818-.3477-.5661-.7095-1.1973-.6025-1.853s.9604-1.1808,1.4562-.7386c.1933.1724.2749.434.4104.6547"/>
  <path class="cls-13" d="m644.2424,247.0386c-.4598-.6975-1.1075-1.2861-1.3954-2.0704-.9034-2.4607,2.1459-5.1977,1.0374-7.573,1.0546-1.2549.586-3.2078-.3419-4.5591s-2.2466-2.4322-2.9794-3.8984c-1.0387-2.0782-.7293-4.5398-.9803-6.8495-.203-1.8679-.7927-3.6929-1.721-5.3265.6944-.0914,1.4275.2529,1.8006.8457.2234.3549.3846.8345.7945.9228.6759.1455.9309-.8608.8251-1.544-.3208-2.0718-.985-4.339.0728-6.1491.6038-.2091,1.3225-.0336,1.762.4302-1.3323.9481-.939,2.9586-.8936,4.5931.0468,1.6858-.4384,3.3799-.1679,5.0445s1.7689,3.3552,3.4005,2.9288c.1089.9802.7968,1.7848,1.4639,2.5113,4.7285,5.1497,10.0052,9.7957,15.7121,13.8341.5865-.7794.2329-1.8998-.2538-2.7452s-1.111-1.7207-1.0036-2.6902c1.4005.8046,2.7701,1.6631,4.1048,2.5728,1.1705.7979,2.3649,1.6963,2.9352,2.993,1.3768.3882,2.8654.6752,4.2833.4858s2.8398-1.1175,3.1453-2.515c.1157-.5294.0657-1.0811.1383-1.6182.1806-1.3359,1.1035-2.4987,1.2062-3.8429.0478-.6261-.0869-1.2496-.155-1.8737-.3149-2.8871.7927-5.7186,1.8795-8.4118.1918-.4753.442-1.0062.9329-1.1534.3069-.0921.6347-.0071.9539.0196,1.1762.0983,2.2988-.6295,2.995-1.5826s1.0455-2.1089,1.3827-3.24c.9944,1.6672.7312,3.9847-.6117,5.3865-.8396.8763-2.0602,1.4482-2.5378,2.5639-.2327.5435-.2546,1.1506-.2684,1.7416-.0653,2.7941-.0269,5.5906.1151,8.3818.0223.4392.0507.8918.2442,1.2866.1793.3659.4855.6511.785.9275,1.1508,1.062,2.6256,2.2055,4.1205,1.7391.8325-.2597,1.7272-.9924,2.4486-.5025.431.2927.5154.8786.6049,1.3919.2317,1.3294.7865,2.6481,1.7992,3.5399s2.5372,1.2702,3.7606.7008,1.9153-2.1994,1.2638-3.3811c.387-.1649.8467-.149,1.2213.0423.853,1.1922-.2945,3.048.5251,4.2633,1.0005,1.4834,3.6023.3755,4.9661,1.5338-.6945.4342-1.3889.8685-2.0834,1.3027,1.7437,1.7636,4.5762,1.8829,6.9927,1.325.7764-.1793,1.56-.4264,2.183-.9232,1.3566-1.082,1.9854-3.309,3.7164-3.4304-.5817.5444-.8113,1.4349-.5654,2.1927,1.1189-.3951,2.2749-.7958,3.4595-.7259,1.297.0766,2.4873.7081,3.6305,1.3255,1.0723.5793,2.1671,1.1758,2.9835,2.0809s1.3142,2.1941.9646,3.3617c-2.2688-1.6077-4.9846-2.5776-7.7586-2.7707-1.0392-.0723-2.1657-.011-2.9889.6272,1.0344.581,2.0687,1.1621,3.1031,1.7431-1.0055.2793-2.0504.4164-3.094.406-.377.1737-.4428.7201-.2383,1.0814s.5871.5783.9535.7736c1.6223.8648,3.2867,1.6507,4.9854,2.3538.467.1933.9605.3982,1.2637.8026.1707.2277.2667.5013.3601.7702.3155.9078.6311,1.8155.9466,2.7233.1118.3215.2248.6657.142.9958s-.4495.611-.7609.4735c-.8677-1.899-3.2398-2.9604-5.234-2.342-.4851.1504-.623,1.0111-.2541,1.3601s.9036.5676,1.0839,1.0424c.1301.3426.0345.7271.0791,1.0908.0497.405.27.766.4852,1.1128.4617.744.9393,1.5057,1.6383,2.0331s1.6794.7759,2.4637.3867c.0655,1.0727-1.1889,1.8462-1.2315,2.92-.039.9814.9291,1.6827,1.8298,2.0745s1.9392.7481,2.3746,1.6285c.1906.3854.238.8307.4403,1.21.682,1.2784,2.5064,1.113,3.9524,1.2037.8145.0511,1.6205.2417,2.4364.2208s1.6864-.3015,2.144-.9773c.2776-.41.5685-1.0288,1.0445-.8925.4823.1381.365.9071-.0319,1.2139s-.9412.4062-1.2815.7748c-.3968.4298-.3864,1.1333-.0822,1.6329s.8436.8165,1.402.9908c1.9137.5976,3.9946-.2828,5.9787.0054,2.6581.3861,4.7215,3.1637,4.3237,5.82-.2141-1.4979-1.3771-2.8166-2.8364-3.2163-.7787-.2133-1.6008-.1806-2.4027-.2746-1.5111-.1772-2.9291-.8007-4.4014-1.1844s-3.125-.5032-4.4371.2669c.0263.3636.0525.7271.0788,1.0907-1.8142-.208-4.0107-.2539-5.0458,1.2505-1,1.4534-.1516,3.6044,1.3466,4.536-.8955.0885-1.9147.4082-2.2306,1.2508-.2688.7167.1063,1.5325.6508,2.0705s1.2429.8896,1.8454,1.3618c.8716.6829,1.5424,1.6379,1.8132,2.7116.0398.1578.0676.3375-.0225.473-.1406.2115-.4559.1775-.703.1189-1.427-.3384-2.854-.6768-4.281-1.0151-.5973,1.8718.2386,4.7337,2.1686,5.1019.7965.1519,1.6508.0283,2.3982.3427,1.4181.5967,1.781,2.3868,2.1102,3.8898s1.199,3.271,2.7374,3.2483c-1.1621,1.009-2.9846.655-4.3246-.102s-2.5082-1.8603-3.9811-2.3066-3.4493.1357-3.7488,1.6453c.346-.0609.5955.3494.6093.7004s-.0938.7158.0242,1.0467c.0886.2487.292.4373.4978.6026,1.1261.9048,2.5677,1.4585,3.4198,2.625.4441.608.6947,1.3441,1.1679,1.9298.752.9309,1.9577,1.3571,3.1226,1.6311s2.3811.4499,3.4187,1.046,1.8698,1.759,1.6419,2.9338c-1.0627-.9809-2.4422-1.6131-3.879-1.7776-.6653.7991-.427,2.0687.2519,2.8563s1.6802,1.2068,2.6478,1.5876c1.6134.635,3.294,1.2473,5.0264,1.1764,2.6563-.1087,5.4054-1.7916,7.8081-.6538-1.0649.0528-2.1497.1096-3.1483.4831s-1.9157,1.1215-2.2183,2.1439c-.3304,1.1163.113,2.2931.3157,3.4395s.0142,2.576-1.0391,3.072c.3249-2.9439-1.8658-5.9515-4.7674-6.5451-1.485-.3038-3.0784-.0464-4.4925-.5925-1.4389-.5556-2.446-1.8449-3.703-2.7388s-3.1956-1.2952-4.2114-.1345c-.2535.2897-.4206.6502-.6945.9208-.5462.5395-1.386.6124-2.1526.6543-1.2317.0674-2.4633.1347-3.695.2021-.8765.0479-1.8563.1447-2.4237.8146s-.141,2.0357.7247,1.89c-1.6447,2.4999-5.1808,2.9062-8.1247,2.3695-.9938-.1812-2.2202-.3587-2.8335.444-.4688.6136-.3023,1.4755-.2442,2.2455s-.1661,1.7362-.9178,1.9129c.0858-1.0102-.4582-2.0473-1.3381-2.5509"/>
  <circle class="cls-12" cx="531.9982" cy="144.7857" r="4.2222"/>
  <circle class="cls-6" cx="530.0414" cy="164.4527" r="8.5345"/>
  <circle class="cls-13" cx="589.2818" cy="323.6992" r="1.3892"/>
  <circle class="cls-13" cx="575.0602" cy="305.6175" r="2.7596"/>
  <circle class="cls-13" cx="741.9518" cy="223.9744" r="4.0274"/>
  <circle class="cls-9" cx="718.7224" cy="202.9417" r="9.8624"/>
  <circle class="cls-13" cx="840.745" cy="127.3903" r="1.6418"/>
  <circle class="cls-13" cx="830.8731" cy="118.4875" r="1.1667"/>
  <circle class="cls-13" cx="809.922" cy="117.4311" r="2.8188"/>
  <circle class="cls-13" cx="713.8198" cy="71.8651" r="6.6032"/>
  <circle class="cls-13" cx="904.2047" cy="284.4487" r="5.9541"/>
  <circle class="cls-13" cx="535.834" cy="418.7546" r="5.3022"/>
  <ellipse class="cls-9" cx="677.4872" cy="289.2228" rx="43.2674" ry="46.0004"/>
  <circle class="cls-4" cx="677.4872" cy="289.2228" r="100.9238"/>
  <g>
    <path class="cls-13" d="m543.7419,506.1234c-72.6481-44.9606-121.1539-125.3671-121.1539-216.9008,0-69.5346,27.9957-132.6446,73.2987-178.676-.291-.2272-.5645-.4846-.813-.7708-47.3964,48.1595-73.4857,111.7944-73.4857,179.4467,0,68.353,26.6182,132.6157,74.9512,180.9487,14.1865,14.1865,29.7539,26.486,46.3856,36.8069.2394-.3153.5112-.6042.8171-.8548Z"/>
    <path class="cls-13" d="m858.4351,108.2744c-48.333-48.333-112.5947-74.9512-180.9478-74.9512-41.8944,0-82.2442,10.0158-118.3394,28.8857.3052.256.5751.553.8098.8795,35.1893-18.3634,75.1651-28.7651,117.5296-28.7651,140.5513,0,254.8989,114.3472,254.8989,254.8994s-114.3477,254.8999-254.8989,254.8999c-8.5561,0-17.0129-.4312-25.3549-1.2588.0369.3375.0407.6813.0092,1.0268,8.3698.8176,16.8259,1.232,25.3457,1.232,68.353,0,132.6147-26.6182,180.9478-74.9512s74.9512-112.5957,74.9512-180.9487-26.6182-132.6152-74.9512-180.9482Z"/>
  </g>
  <path class="cls-13" d="m896.7458,203.6765c-.4216.0089-.8427-.0331-1.2532-.1219,10.4708,26.5459,16.2325,55.4451,16.2325,85.668,0,129.1587-105.0791,234.2378-234.2378,234.2378s-234.2378-105.0791-234.2378-234.2378c0-108.5288,74.1968-200.0439,174.5258-226.5134-.1863-.3145-.3392-.6447-.4602-.9829-39.8009,10.4561-76.2953,31.2876-106.1661,61.1584-44.4302,44.4307-68.8994,103.5039-68.8994,166.3379s24.4692,121.9077,68.8994,166.3384c44.4307,44.4307,103.5039,68.8994,166.3384,68.8994s121.9077-24.4688,166.3384-68.8994,68.8994-103.5039,68.8994-166.3384c0-29.7443-5.4897-58.6426-15.9794-85.5461Z"/>
  <g>
    <path class="cls-13" d="m469.1192,377.5102l-1.8408.7812c13.5259,31.8828,34.5752,60.7705,60.8716,83.541l1.3096-1.5117c-26.0674-22.5723-46.9326-51.207-60.3403-82.8105Z"/>
    <path class="cls-13" d="m454.4781,250.9018l-1.9717-.3359c-2.1631,12.6812-3.2603,25.6875-3.2603,38.6567,0,21.9575,3.1128,43.6704,9.2524,64.5366l1.9189-.5645c-6.0859-20.6826-9.1714-42.2061-9.1714-63.9722,0-12.8569,1.0874-25.75,3.2319-38.3208Z"/>
    <path class="cls-13" d="m619.6143,70.4511l-.5098-1.9336c-33.4819,8.833-65.063,25.5767-91.3286,48.4209l1.3125,1.5088c26.0356-22.6436,57.3394-39.2407,90.5259-47.9961Z"/>
    <path class="cls-13" d="m904.2047,262.7192c-3.9873-34.4751-16.0645-68.1138-34.9268-97.2793l-1.6797,1.0859c18.6963,28.9092,30.668,62.252,34.6201,96.4229l1.9863-.2295Z"/>
    <path class="cls-13" d="m510.5929,136.4741l-1.4746-1.3506c-23.5117,25.6753-41.0654,56.8149-50.7637,90.0527l1.9199.5605c9.6128-32.9458,27.0127-63.812,50.3184-89.2627Z"/>
    <path class="cls-13" d="m794.3834,482.9643l1.0352,1.7109c29.6953-17.9561,55.3252-42.876,74.1172-72.0674l-1.6816-1.082c-18.6289,28.9355-44.0342,53.6387-73.4707,71.4385Z"/>
    <path class="cls-13" d="m905.7271,288.726h-2l.001.4966c0,35.0337-7.79,68.6177-23.1543,99.8179l1.7949.8828c15.5-31.4775,23.3594-65.3574,23.3594-100.7065l-.001-.4907Z"/>
    <path class="cls-13" d="m548.7872,477.7436c28.6899,19.624,62.0073,32.5723,96.3501,37.4453l.2812-1.9805c-34.0405-4.8301-67.0645-17.6641-95.5024-37.1152l-1.1289,1.6504Z"/>
    <path class="cls-13" d="m677.4874,515.4633c-2.1094,0-4.2412-.0293-6.3359-.0879l-.0557,2c2.1133.0586,4.2637.0879,6.3916.0879,33.1099,0,65.0425-6.9336,94.9106-20.6094l-.832-1.8184c-29.6055,13.5547-61.2588,20.4277-94.0786,20.4277Z"/>
  </g>
  <g>
    <path class="cls-13" d="m494.0958,354.312c.3359.9473.6787,1.8896,1.0288,2.8301l.9375-.3496c-.3486-.9346-.6899-1.873-1.0239-2.8145l-.9424.334Z"/>
    <path class="cls-13" d="m496.1983,359.9545c.3652.9365.7373,1.8682,1.1167,2.7969l.9258-.3789c-.3774-.9229-.7476-1.8506-1.1108-2.7812l-.9316.3633Z"/>
    <path class="cls-13" d="m498.4703,365.517c.3926.9199.792,1.8369,1.1987,2.749l.9131-.4062c-.4038-.9082-.8013-1.8193-1.1919-2.7354l-.9199.3926Z"/>
    <path class="cls-13" d="m491.3849,342.5698l-.9609.2754c.2764.9658.5601,1.9287.8506,2.8887l.957-.29c-.2891-.9551-.5713-1.9121-.8467-2.874Z"/>
    <path class="cls-13" d="m509.2349,386.9594c.5044.8652,1.0146,1.7266,1.5312,2.584l.8564-.5176c-.5142-.8516-1.022-1.709-1.5234-2.5703l-.8643.5039Z"/>
    <path class="cls-13" d="m500.9098,370.9956c.4209.9092.8491,1.8125,1.2837,2.7129l.9004-.4355c-.4326-.8945-.8579-1.7939-1.2769-2.6973l-.9072.4199Z"/>
    <path class="cls-13" d="m506.295,381.7241c.4766.8799.96,1.7559,1.4497,2.6289l.8721-.4902c-.4878-.8672-.9683-1.7393-1.4429-2.6152l-.8789.4766Z"/>
    <path class="cls-13" d="m503.5186,376.4008c.4487.8936.9048,1.7842,1.3672,2.6719l.8867-.4629c-.4604-.8818-.9136-1.7686-1.3604-2.6582l-.8936.4492Z"/>
    <path class="cls-13" d="m484.773,307.2983l-.9961.0918c.0928,1.001.1929,1.999.3008,2.9951l.9941-.1074c-.1069-.9902-.207-1.9844-.2988-2.9795Z"/>
    <path class="cls-13" d="m512.337,392.102c.5303.8506,1.0674,1.6963,1.6108,2.5371l.8398-.543c-.5405-.8369-1.0747-1.6768-1.6021-2.5234l-.8486.5293Z"/>
    <path class="cls-13" d="m484.0348,295.3413l-.999.0312c.0312,1.0059.0698,2.0078.1162,3.0088l.999-.0469c-.0464-.9951-.085-1.9932-.1162-2.9932Z"/>
    <path class="cls-13" d="m484.3126,301.3256l-.998.0625c.062,1.0029.1318,2.0039.2085,3.002l.9971-.0762c-.0767-.9941-.1455-1.9893-.2075-2.9883Z"/>
    <path class="cls-13" d="m483.94,289.3579l-1,.001c.001,1.0049.0093,2.0088.0249,3.0098l1-.0156c-.0156-.9971-.0239-1.9951-.0249-2.9951Z"/>
    <path class="cls-13" d="m486.2452,319.185l-.9883.1523c.1538.9932.3159,1.9844.4854,2.9727l.9854-.1699c-.1685-.9824-.3296-1.9678-.4824-2.9551Z"/>
    <path class="cls-13" d="m488.4513,330.9565l-.9766.2148c.2153.9814.4385,1.96.6694,2.9355l.9731-.2305c-.2295-.9697-.4517-1.9424-.666-2.9199Z"/>
    <path class="cls-13" d="m487.2559,325.0883l-.9824.1855c.1855.9863.3779,1.9717.5776,2.9531l.9795-.1992c-.1987-.9775-.3901-1.957-.5747-2.9395Z"/>
    <path class="cls-13" d="m489.8277,336.7875l-.9697.2441c.2456.9736.4995,1.9453.7603,2.9131l.9658-.2598c-.2598-.9639-.5122-1.9297-.7563-2.8975Z"/>
    <path class="cls-13" d="m485.4166,313.2524l-.9922.123c.123.9971.2544,1.9912.3931,2.9844l.9902-.1387c-.1377-.9873-.2681-1.9775-.3911-2.9688Z"/>
    <path class="cls-13" d="m519.0128,402.0952c.582.8164,1.1704,1.6279,1.7651,2.4346l.8047-.5938c-.5908-.8027-1.1763-1.6084-1.7554-2.4209l-.8145.5801Z"/>
    <path class="cls-13" d="m515.5982,397.1498c.5562.834,1.1191,1.6621,1.688,2.4863l.8232-.5684c-.5659-.8203-1.126-1.6445-1.6797-2.4727l-.8315.5547Z"/>
    <path class="cls-13" d="m522.5982,171.4848c-.6079.7988-1.21,1.6025-1.8062,2.4111l.8047.5938c.5933-.8047,1.1924-1.6045,1.7974-2.3994l-.7959-.6055Z"/>
    <path class="cls-13" d="m484.0274,283.3686l-1-.0303c-.0298,1.002-.0518,2.0049-.0664,3.0098l1,.0146c.0146-1,.0366-1.998.0664-2.9941Z"/>
    <path class="cls-13" d="m519.0225,176.3349c-.5835.8174-1.1606,1.6401-1.7314,2.4668l.8232.5684c.5679-.8228,1.1421-1.6406,1.7222-2.4541l-.814-.5811Z"/>
    <path class="cls-13" d="m492.1705,348.6079c.3062.957.6196,1.9102.9404,2.8604l.9473-.3203c-.3188-.9443-.6304-1.8936-.9355-2.8447l-.9521.3047Z"/>
    <path class="cls-13" d="m625.5182,102.7319l-.2676-.9634c-.9683.269-1.9331.5454-2.8945.8291l.2832.959c.9561-.2817,1.916-.5571,2.8789-.8247Z"/>
    <path class="cls-13" d="m619.7735,104.4267l-.2979-.9551c-.959.2993-1.9146.606-2.8667.9189l.3125.9502c.9473-.312,1.8979-.6167,2.8521-.9141Z"/>
    <path class="cls-13" d="m861.8209,226.851c-.3223-.9517-.6514-1.8999-.9873-2.8447l-.9414.335c.334.9399.6611,1.8833.9814,2.8301l.9473-.3203Z"/>
    <path class="cls-13" d="m614.0841,106.2988l-.3271-.9443c-.9487.3286-1.8945.6646-2.8369,1.0078l.3418.9395c.9375-.3413,1.8784-.6753,2.8223-1.0029Z"/>
    <path class="cls-13" d="m597.4366,112.9531l-.4141-.9102c-.9106.4146-1.8179.8354-2.7207,1.2637l.4277.9033c.8989-.4253,1.8013-.8442,2.707-1.2568Z"/>
    <path class="cls-13" d="m862.7037,232.874l.957-.29c-.292-.9614-.5918-1.9194-.8975-2.874l-.9521.3057c.3047.9497.6025,1.9028.8926,2.8584Z"/>
    <path class="cls-13" d="m592.0421,115.5087l-.4424-.8965c-.8975.4424-1.791.8911-2.6812,1.3472l.4561.8896c.8853-.4531,1.7749-.8999,2.6675-1.3403Z"/>
    <path class="cls-13" d="m602.9054,110.5673l-.3857-.9229c-.9229.3857-1.8423.7783-2.7578,1.1782l.4004.9165c.9106-.3975,1.8252-.7881,2.7432-1.1719Z"/>
    <path class="cls-13" d="m608.4557,108.3486l-.3564-.9346c-.9385.3584-1.873.7236-2.8042,1.0962l.3711.9287c.9263-.3706,1.856-.7339,2.7896-1.0903Z"/>
    <path class="cls-13" d="m870.818,279.978l.998-.0469c-.0469-1.0039-.1016-2.0063-.1641-3.0063l-.998.0625c.0625.9951.1172,1.9917.1641,2.9907Z"/>
    <path class="cls-13" d="m869.8883,268.0356l.9941-.1084c-.1084-.999-.2256-1.9956-.3486-2.9897l-.9922.123c.123.9893.2383,1.981.3467,2.9751Z"/>
    <path class="cls-13" d="m586.7271,118.2309l-.4697-.8828c-.8843.4702-1.7637.9473-2.6396,1.4302l.4834.876c.8711-.481,1.7466-.9551,2.626-1.4233Z"/>
    <path class="cls-13" d="m870.4449,273.999l.9961-.0781c-.0781-1.002-.1631-2.0015-.2559-2.999l-.9961.0928c.0928.9927.1777,1.9873.2559,2.9844Z"/>
    <path class="cls-13" d="m871.0074,285.9589l1-.0166c-.0166-1.0029-.041-2.0044-.0723-3.0039l-1,.0312c.0312.9946.0557,1.9912.0723,2.9893Z"/>
    <path class="cls-13" d="m869.149,262.0917l.9902-.1396c-.1396-.9946-.2871-1.9873-.4414-2.9775l-.9883.1543c.1543.9854.2998,1.9731.4395,2.9629Z"/>
    <path class="cls-13" d="m867.1168,250.2871l.9805-.2002c-.2012-.9844-.4092-1.9658-.625-2.9448l-.9766.2148c.2139.9741.4219,1.9507.6211,2.9302Z"/>
    <path class="cls-13" d="m864.357,238.6313l.9648-.2607c-.2617-.9697-.5312-1.9365-.8076-2.8999l-.9609.2754c.2744.9585.542,1.9204.8037,2.8853Z"/>
    <path class="cls-13" d="m865.8277,244.4374l.9727-.2305c-.2314-.978-.4707-1.9526-.7178-2.9243l-.9688.2461c.2451.9668.4824,1.9365.7139,2.9087Z"/>
    <path class="cls-13" d="m868.2242,256.1733l.9863-.1699c-.1709-.9902-.3486-1.9775-.5342-2.9624l-.9824.1846c.1836.98.3613,1.9624.5303,2.9478Z"/>
    <path class="cls-13" d="m484.7486,271.4121l-.9961-.0908c-.0908.9976-.1748,1.9976-.2505,3l.9971.0752c.0757-.9966.1587-1.9917.2495-2.9844Z"/>
    <path class="cls-13" d="m491.3126,236.1303l-.9619-.2734c-.2744.9644-.542,1.9316-.8018,2.9019l.9658.2588c.2588-.9653.5244-1.9277.7979-2.8872Z"/>
    <path class="cls-13" d="m489.7628,241.9155l-.9697-.2437c-.2441.9727-.4814,1.9478-.7109,2.9258l.9736.2285c.2285-.9731.4639-1.9434.707-2.9106Z"/>
    <path class="cls-13" d="m488.3941,247.7475l-.9766-.2139c-.2144.9795-.4209,1.9614-.6196,2.9463l.9805.1982c.1978-.98.4033-1.957.6157-2.9307Z"/>
    <path class="cls-13" d="m493.046,230.3832l-.9531-.3037c-.3057.9595-.6045,1.9219-.8955,2.8877l.957.2891c.29-.9609.5869-1.9185.8916-2.873Z"/>
    <path class="cls-13" d="m486.2047,259.5229l-.9883-.1523c-.1528.9907-.2979,1.9839-.4351,2.979l.9902.1367c.1372-.9902.2812-1.9775.4331-2.9634Z"/>
    <path class="cls-13" d="m487.2076,253.6181l-.9834-.1826c-.1831.9854-.3589,1.9731-.5273,2.9634l.9858.168c.168-.9854.3428-1.9683.5249-2.9487Z"/>
    <path class="cls-13" d="m485.3844,265.4565l-.9922-.1221c-.1221.9951-.2363,1.9922-.3428,2.9912l.9941.1064c.1064-.9941.2197-1.9863.3408-2.9756Z"/>
    <path class="cls-13" d="m484.2965,277.3852l-.998-.0605c-.0605,1-.1138,2.0024-.1587,3.0063l.999.0449c.0449-.999.0972-1.9956.1577-2.9907Z"/>
    <path class="cls-13" d="m581.4972,121.1181l-.4961-.8682c-.8696.4976-1.7349,1.001-2.5952,1.5112l.5098.8604c.8564-.5073,1.7168-1.0088,2.5815-1.5034Z"/>
    <path class="cls-13" d="m494.9615,224.6831l-.9434-.333c-.335.9492-.6636,1.9014-.9849,2.8569l.9482.3184c.3193-.9507.646-1.8979.98-2.8423Z"/>
    <path class="cls-13" d="m516.4293,181.851l-.8311-.5557c-.5581.8345-1.1099,1.6748-1.6553,2.519l.8398.5425c.5425-.8398,1.0913-1.6753,1.6465-2.5059Z"/>
    <path class="cls-13" d="m513.1754,186.8886l-.8486-.5293c-.5317.8521-1.0576,1.709-1.5767,2.5698l.8564.5166c.5161-.8569,1.0396-1.709,1.5688-2.5571Z"/>
    <path class="cls-13" d="m576.3575,124.1655l-.5234-.8525c-.853.5239-1.7026,1.0547-2.5474,1.5918l.5361.8438c.8408-.5342,1.6855-1.062,2.5347-1.583Z"/>
    <path class="cls-13" d="m510.0772,192.0283l-.8643-.5029c-.5054.8687-1.0039,1.7412-1.4966,2.6187l.8721.4893c.4897-.8726.9863-1.7412,1.4888-2.605Z"/>
    <path class="cls-13" d="m507.1402,197.2612l-.8799-.4756c-.478.8838-.9497,1.772-1.4146,2.6646l.8867.4619c.4629-.8877.9316-1.771,1.4077-2.6509Z"/>
    <path class="cls-13" d="m501.7584,207.9941l-.9072-.4199c-.4229.9126-.8384,1.8286-1.2471,2.749l.9141.4062c.4067-.916.8198-1.8276,1.2402-2.7354Z"/>
    <path class="cls-13" d="m499.3204,213.4833l-.9199-.3916c-.394.9258-.7812,1.855-1.1611,2.7881l.9258.377c.3779-.9282.7632-1.8525,1.1553-2.7734Z"/>
    <path class="cls-13" d="m497.0543,219.0483l-.9316-.3633c-.3652.9375-.7231,1.8789-1.0742,2.8237l.9375.3486c.3491-.9399.7051-1.8765,1.0684-2.8091Z"/>
    <path class="cls-13" d="m504.3663,202.5849l-.8936-.4482c-.4512.8989-.895,1.8013-1.332,2.708l.9004.4346c.4351-.9019.877-1.8003,1.3252-2.6943Z"/>
    <path class="cls-13" d="m833.2974,404.0659l.8047.5938c.5967-.8086,1.1865-1.6211,1.7715-2.4385l-.8145-.582c-.5811.8135-1.1689,1.6221-1.7617,2.4268Z"/>
    <path class="cls-13" d="m843.2994,389.1157l.8555.5156c.5195-.8604,1.0322-1.7246,1.5381-2.5928l-.8633-.5039c-.5039.8643-1.0146,1.7246-1.5303,2.5811Z"/>
    <path class="cls-13" d="m846.3199,383.9291l.8711.4902c.4932-.876.9785-1.7568,1.458-2.6406l-.8789-.4766c-.4775.8799-.9609,1.7549-1.4502,2.627Z"/>
    <path class="cls-13" d="m840.1178,394.2016l.8398.543c.5459-.8428,1.0859-1.6904,1.6182-2.5439l-.8477-.5293c-.5303.8477-1.0664,1.6914-1.6104,2.5303Z"/>
    <path class="cls-13" d="m836.7848,399.186l.8223.5684c.5713-.8262,1.1357-1.6562,1.6943-2.4912l-.8301-.5566c-.5566.8311-1.1191,1.6572-1.6865,2.4795Z"/>
    <path class="cls-13" d="m786.0357,449.4887l.5625.8281c.8291-.5635,1.6533-1.1318,2.4727-1.707l-.5742-.8184c-.8154.5713-1.6357,1.1377-2.4609,1.6973Z"/>
    <path class="cls-13" d="m775.943,455.892l.5098.8613c.8613-.5107,1.7188-1.0273,2.5723-1.5508l-.5234-.8516c-.8477.5195-1.7012,1.0342-2.5586,1.541Z"/>
    <path class="cls-13" d="m849.1783,378.6538l.8867.4629c.4658-.8916.9238-1.7871,1.376-2.6855l-.8945-.4492c-.4482.8945-.9043,1.7842-1.3682,2.6719Z"/>
    <path class="cls-13" d="m781.0377,452.769l.5352.8447c.8467-.5371,1.6885-1.0801,2.5254-1.6299l-.5488-.8359c-.833.5459-1.6689,1.0869-2.5117,1.6211Z"/>
    <path class="cls-13" d="m770.7545,458.8569l.4824.875c.8779-.4834,1.751-.9727,2.6191-1.4688l-.4961-.8691c-.8643.4941-1.7314.9814-2.6055,1.4629Z"/>
    <path class="cls-13" d="m790.9312,446.0541l.5859.8105c.8125-.5879,1.6201-1.1816,2.4219-1.7822l-.5996-.8008c-.7979.5967-1.5996,1.1885-2.4082,1.7725Z"/>
    <path class="cls-13" d="m851.8746,373.2875l.9004.4355c.4365-.9053.8672-1.8145,1.291-2.7275l-.9062-.4219c-.4219.9092-.8506,1.8145-1.2852,2.7139Z"/>
    <path class="cls-13" d="m867.1695,327.8998l.9805.1992c.1992-.9824.3916-1.9668.5752-2.9551l-.9824-.1836c-.1836.9824-.374,1.9629-.5732,2.9395Z"/>
    <path class="cls-13" d="m851.3951,201.9248l-.8926.4492c.4463.8887.8867,1.7808,1.3203,2.6772l.9004-.4355c-.4355-.9014-.8779-1.7983-1.3281-2.6909Z"/>
    <path class="cls-13" d="m865.8883,333.7514l.9727.2285c.2305-.9766.4531-1.9551.668-2.9355l-.9766-.2148c-.2148.9766-.4355,1.9492-.6641,2.9219Z"/>
    <path class="cls-13" d="m864.4244,339.56l.9648.2598c.2607-.9688.5137-1.9395.7588-2.9141l-.9688-.2441c-.2451.9688-.4961,1.9355-.7549,2.8984Z"/>
    <path class="cls-13" d="m871.0348,288.954v.2686c0,1-.0078,1.9985-.0225,2.9966l1,.0146c.0146-1.0029.0225-2.0063.0225-3.0112v-.2686h-1Z"/>
    <path class="cls-13" d="m870.8297,298.2036l.998.0469c.0469-1.001.085-2.0039.1152-3.0088l-1-.0293c-.0303.999-.0684,1.9961-.1133,2.9912Z"/>
    <path class="cls-13" d="m870.4654,304.184l.9961.0762c.0771-.999.1455-2,.207-3.0039l-.998-.0605c-.0615.998-.1299,1.9941-.2051,2.9883Z"/>
    <path class="cls-13" d="m869.9166,310.1469l.9941.1074c.1064-.9961.207-1.9951.2988-2.9951l-.9961-.0918c-.0918.9961-.1904,1.9893-.2969,2.9795Z"/>
    <path class="cls-13" d="m869.1851,316.0922l.9902.1377c.1377-.9922.2686-1.9873.3906-2.9854l-.9922-.1211c-.1221.9922-.252,1.9814-.3887,2.9688Z"/>
    <path class="cls-13" d="m854.401,367.8403l.9141.4062c.4082-.9189.8105-1.8418,1.2061-2.7676l-.9199-.3926c-.3936.9219-.7939,1.8389-1.2002,2.7539Z"/>
    <path class="cls-13" d="m854.0084,207.3261l-.9062.4214c.4189.9019.8301,1.8071,1.2354,2.7158l.9141-.4072c-.4072-.9136-.8223-1.8237-1.2432-2.73Z"/>
    <path class="cls-13" d="m856.4517,212.8041l-.9199.3936c.3906.9136.7744,1.8306,1.1514,2.7515l.9258-.3789c-.3789-.9258-.7646-1.8477-1.1572-2.7661Z"/>
    <path class="cls-13" d="m765.481,461.6577l.4551.8906c.8916-.4561,1.7783-.9189,2.6611-1.3877l-.4688-.8828c-.8789.4668-1.7617.9258-2.6475,1.3799Z"/>
    <path class="cls-13" d="m858.7281,218.3657l-.9316.3643c.3633.9292.7197,1.8623,1.0713,2.7983l.9355-.3506c-.3516-.9409-.71-1.8779-1.0752-2.812Z"/>
    <path class="cls-13" d="m856.7574,362.3139l.9258.3789c.3809-.9316.7539-1.8662,1.1201-2.8057l-.9316-.3633c-.3643.9336-.7354,1.8643-1.1143,2.79Z"/>
    <path class="cls-13" d="m860.9508,351.0483l.9473.3184c.3213-.9531.6357-1.9111.9424-2.8711l-.9531-.3047c-.3047.9561-.6172,1.9082-.9365,2.8574Z"/>
    <path class="cls-13" d="m858.941,356.7153l.9375.3496c.3516-.9443.6953-1.8906,1.0322-2.8408l-.9434-.334c-.335.9443-.6768,1.8867-1.0264,2.8252Z"/>
    <path class="cls-13" d="m862.7808,345.3198l.957.2891c.29-.9609.5732-1.9229.8486-2.8887l-.9609-.2754c-.2754.9619-.5566,1.9199-.8447,2.875Z"/>
    <path class="cls-13" d="m868.2682,322.0122l.9863.168c.168-.9883.3301-1.9785.4834-2.9717l-.9883-.1523c-.1533.9873-.3135,1.9736-.4814,2.9561Z"/>
    <path class="cls-13" d="m619.7296,475.0522c.9575.2979,1.918.5879,2.8823.8701l.2812-.959c-.9585-.2822-1.9141-.5703-2.8667-.8662l-.2969.9551Z"/>
    <path class="cls-13" d="m613.9849,473.1704c.9517.3281,1.9067.6494,2.8647.9629l.3115-.9492c-.9531-.3135-1.9033-.6328-2.8501-.959l-.3262.9453Z"/>
    <path class="cls-13" d="m608.3048,471.1088c.9409.3584,1.8848.709,2.832,1.0527l.3408-.9395c-.9424-.3418-1.8813-.6904-2.8174-1.0469l-.3555.9336Z"/>
    <path class="cls-13" d="m602.693,468.8715c.9292.3887,1.8613.7686,2.7974,1.1416l.3701-.9297c-.9312-.3711-1.8584-.749-2.7822-1.1338l-.3853.9219Z"/>
    <path class="cls-13" d="m643.1158,480.7436c.9868.1758,1.9766.3447,2.9683.5049l.1602-.9863c-.9868-.1602-1.9707-.3281-2.9526-.5029l-.1758.9844Z"/>
    <path class="cls-13" d="m625.5079,476.7495c.9663.2656,1.9355.5264,2.9077.7793l.2515-.9688c-.9678-.251-1.9321-.5098-2.8936-.7754l-.2656.9648Z"/>
    <path class="cls-13" d="m631.3341,478.2612c.9741.2373,1.9512.4678,2.9307.6895l.2217-.9746c-.9746-.2217-1.9468-.4502-2.916-.6855l-.2363.9707Z"/>
    <path class="cls-13" d="m760.1246,464.2924l.4258.9043c.9053-.4268,1.8066-.8613,2.7031-1.3037l-.4414-.8965c-.8926.4385-1.7881.8711-2.6875,1.2959Z"/>
    <path class="cls-13" d="m628.1573,100.9843l.2529.9678c.9648-.2524,1.9321-.4976,2.9033-.7344l-.2373-.9717c-.9761.2388-1.9492.4849-2.9189.7383Z"/>
    <path class="cls-13" d="m637.2061,479.5942c.981.207,1.9644.4053,2.9507.5977l.1914-.9824c-.9814-.1904-1.96-.3887-2.936-.5938l-.2061.9785Z"/>
    <path class="cls-13" d="m565.7813,448.5239c.8223.5771,1.6484,1.1484,2.4795,1.7129l.5625-.8262c-.8271-.5625-1.6494-1.1299-2.4668-1.7051l-.5752.8184Z"/>
    <path class="cls-13" d="m570.7633,126.5351c-.8374.5503-1.6699,1.1069-2.4985,1.6699l.5625.8271c.8237-.5601,1.6523-1.1138,2.4849-1.6611l-.5488-.8359Z"/>
    <path class="cls-13" d="m591.6993,463.8832c.9023.4434,1.8081.8809,2.7183,1.3115l.4277-.9043c-.9053-.4287-1.8071-.8643-2.7046-1.3047l-.4414.8975Z"/>
    <path class="cls-13" d="m560.9044,444.9848c.8032.6016,1.6113,1.1982,2.4243,1.7881l.5879-.8086c-.8091-.5879-1.6133-1.1807-2.4126-1.7803l-.5996.8008Z"/>
    <path class="cls-13" d="m565.7921,129.914c-.8198.5762-1.6353,1.1582-2.4458,1.7466l.5874.8096c.8062-.5854,1.6177-1.1646,2.4336-1.7378l-.5752-.8184Z"/>
    <path class="cls-13" d="m586.3272,461.1332c.8877.4717,1.7798.9375,2.6758,1.3955l.4551-.8906c-.8911-.4561-1.7783-.918-2.6611-1.3877l-.4697.8828Z"/>
    <path class="cls-13" d="m581.045,458.2221c.8726.498,1.749.9902,2.6299,1.4756l.4824-.875c-.876-.4834-1.7485-.9736-2.6162-1.4697l-.4961.8691Z"/>
    <path class="cls-13" d="m575.856,455.145c.8569.5264,1.7173,1.0449,2.5825,1.5576l.5098-.8594c-.8604-.5107-1.7168-1.0273-2.5688-1.5498l-.5234.8516Z"/>
    <path class="cls-13" d="m570.7662,451.9116c.8403.5518,1.6841,1.0977,2.5327,1.6367l.5361-.8438c-.8438-.5371-1.6836-1.0791-2.5195-1.6289l-.5493.8359Z"/>
    <path class="cls-13" d="m597.1573,466.4633c.916.415,1.8354.8242,2.7588,1.2266l.3984-.918c-.9185-.3984-1.833-.8057-2.7441-1.2188l-.4131.9102Z"/>
    <path class="cls-13" d="m726.4342,476.5278l.252.9668c.9717-.2529,1.9404-.5137,2.9072-.7822l-.2676-.9629c-.9609.2666-1.9258.5254-2.8916.7783Z"/>
    <path class="cls-13" d="m720.6148,477.9477l.2227.9746c.9785-.2227,1.9561-.4531,2.9297-.6914l-.2363-.9707c-.9697.2363-1.9414.4648-2.916.6875Z"/>
    <path class="cls-13" d="m732.2057,474.9272l.2832.959c.9629-.2842,1.9238-.5742,2.8809-.8721l-.2969-.9551c-.9531.2959-1.9082.5859-2.8672.8682Z"/>
    <path class="cls-13" d="m714.7555,479.184l.1914.9824c.9863-.1924,1.9688-.3916,2.9502-.5996l-.207-.9785c-.9756.2061-1.9541.4053-2.9346.5957Z"/>
    <path class="cls-13" d="m749.1842,469.0561l.3691.9297c.9297-.3701,1.8555-.748,2.7764-1.1338l-.3848-.9219c-.917.3818-1.8369.7578-2.7607,1.126Z"/>
    <path class="cls-13" d="m754.6891,466.7592l.3984.916c.918-.3994,1.8311-.8057,2.7412-1.2188l-.4141-.9102c-.9043.4111-1.8135.8154-2.7256,1.2129Z"/>
    <path class="cls-13" d="m737.9244,473.1469l.3125.9492c.9541-.3125,1.9053-.6328,2.8525-.9609l-.3262-.9453c-.9434.3262-1.8887.6445-2.8389.957Z"/>
    <path class="cls-13" d="m708.8599,480.2407l.1602.9863c.9922-.1611,1.9805-.3311,2.9678-.5068l-.1758-.9844c-.9814.1758-1.9658.3438-2.9521.5049Z"/>
    <path class="cls-13" d="m743.5865,471.1899l.3398.9395c.9443-.3418,1.8857-.6924,2.8223-1.0498l-.3555-.9336c-.9326.3555-1.8682.7041-2.8066,1.0439Z"/>
    <path class="cls-13" d="m649.0601,481.7075c.9912.1445,1.9854.2822,2.9814.4131l.1299-.9922c-.9912-.1289-1.9805-.2666-2.9668-.4111l-.1445.9902Z"/>
    <path class="cls-13" d="m661.0206,483.0825c.9985.083,1.999.1602,3.0015.2285l.0684-.998c-.9976-.0684-1.9932-.1436-2.9868-.2266l-.083.9961Z"/>
    <path class="cls-13" d="m667.0269,483.4936c1,.0527,2.0024.0986,3.0068.1367l.0381-1c-.9995-.0381-1.9971-.082-2.9922-.1348l-.0527.998Z"/>
    <path class="cls-13" d="m673.0426,483.7211c1.0015.0225,2.0054.0371,3.0103.0439l.0068-1c-1-.0068-1.998-.0215-2.9946-.0439l-.0225,1Z"/>
    <path class="cls-13" d="m655.0294,482.4887c.9951.1143,1.9932.2207,2.9932.3203l.0986-.9961c-.9951-.0977-1.9873-.2041-2.9775-.3184l-.1143.9941Z"/>
    <path class="cls-13" d="m691.0152,482.3041l.0684.998c1.0029-.0693,2.0029-.1465,3.002-.2305l-.084-.9961c-.9941.084-1.9893.1592-2.9863.2285Z"/>
    <path class="cls-13" d="m696.984,481.8012l.0996.9941c1-.0996,1.9971-.207,2.9932-.3223l-.1152-.9941c-.9902.1152-1.9834.2227-2.9775.3223Z"/>
    <path class="cls-13" d="m679.0553,482.7641l.0078,1c1.0049-.0078,2.0068-.0234,3.0078-.0469l-.0234-1c-.9951.0234-1.9932.0391-2.9922.0469Z"/>
    <path class="cls-13" d="m702.9332,481.1118l.1309.9922c.9951-.1318,1.9893-.2695,2.9805-.415l-.1455-.9902c-.9863.1455-1.9746.2832-2.9658.4131Z"/>
    <path class="cls-13" d="m685.0338,482.6245l.0371,1c1.0049-.0381,2.0078-.085,3.0088-.1387l-.0547-.998c-.9951.0537-1.9922.0986-2.9912.1367Z"/>
  </g>
  <path class="cls-6" d="m592.2111,213.8058c-8.4422-7.8493-16.8844-15.6986-25.3265-23.5479l-15.8745-14.7597-2.7006-2.5109"/>
  <path class="cls-6" d="m666.5976,402.5416c-.5552,4.5774-1.1104,9.1549-1.6656,13.7323"/>
  <path class="cls-6" d="m673.7344,403.0018c-.8285,14.3004-1.657,28.6007-2.4856,42.9011"/>
  <path class="cls-6" d="m680.8861,403.0129c.0572,11.5273.1143,23.0546.1715,34.5819.0358,7.2252.0717,14.4504.1075,21.6757l.0183,3.6875"/>
  <path class="cls-6" d="m688.0243,402.5749c1.0019,14.7565,2.0038,29.513,3.0057,44.2696"/>
  <path class="cls-6" d="m695.121,401.6896c.7808,5.9432,1.5615,11.8864,2.3423,17.8296"/>
  <path class="cls-6" d="m702.148,400.3605c2.2162,11.3124,4.4323,22.6248,6.6485,33.9372,1.3891,7.0905,2.7781,14.1811,4.1672,21.2716l.7089,3.6187"/>
  <path class="cls-6" d="m709.0777,398.5927c2.9221,11.1509,5.8442,22.3019,8.7663,33.4528,1.8315,6.9893,3.6631,13.9786,5.4946,20.9679l.9348,3.5671"/>
  <path class="cls-6" d="m735.2845,387.3004c3.8103,6.8503,7.6206,13.7005,11.431,20.5508"/>
  <path class="cls-6" d="m741.3288,383.4777c1.6185,2.5226,3.237,5.0451,4.8554,7.5677"/>
  <path class="cls-6" d="m747.1211,379.2831c10.1322,13.8013,20.2644,27.6026,30.3965,41.4039"/>
  <path class="cls-6" d="m752.6386,374.733c7.3918,8.8455,14.7837,17.691,22.1755,26.5365,4.6331,5.5443,9.2663,11.0886,13.8994,16.6329l2.3646,2.8296"/>
  <path class="cls-6" d="m757.8596,369.8455c7.9327,8.3639,15.8653,16.7278,23.798,25.0917,4.9721,5.2424,9.9442,10.4849,14.9164,15.7273l2.5376,2.6755"/>
  <path class="cls-6" d="m762.7633,364.6398c7.0914,6.5934,14.1829,13.1868,21.2743,19.7803"/>
  <path class="cls-6" d="m767.3305,359.1364c8.9184,7.3037,17.8368,14.6075,26.7551,21.9112,5.59,4.5779,11.1799,9.1558,16.7699,13.7338l2.8529,2.3364"/>
  <path class="cls-6" d="m771.5431,353.3572c9.3594,6.7293,18.7188,13.4587,28.0782,20.188,5.8664,4.2179,11.7328,8.4358,17.5992,12.6537l2.994,2.1527"/>
  <path class="cls-6" d="m775.3846,347.3248c13.7116,8.6066,27.4232,17.2131,41.1349,25.8197"/>
  <path class="cls-6" d="m778.8397,341.0631c10.129,5.5032,20.258,11.0065,30.387,16.5097,6.3488,3.4494,12.6975,6.8988,19.0463,10.3481l3.2402,1.7604"/>
  <path class="cls-6" d="m781.8947,334.5969c11.7228,5.4455,23.4457,10.891,35.1685,16.3365"/>
  <path class="cls-6" d="m784.5378,327.9515c6.4433,2.5142,12.8866,5.0284,19.33,7.5426"/>
  <path class="cls-6" d="m786.7583,321.1533c10.9808,3.5078,21.9616,7.0155,32.9424,10.5233,6.8827,2.1986,13.7653,4.3973,20.648,6.5959l3.5127,1.1221"/>
  <path class="cls-6" d="m788.5476,314.2291c11.1794,2.8114,22.3587,5.6227,33.5381,8.4341,7.0071,1.7621,14.0143,3.5243,21.0214,5.2864l3.5762.8993"/>
  <path class="cls-6" d="m789.8987,307.2063l10.2005,1.8935"/>
  <path class="cls-6" d="m790.806,300.1124c14.4515,1.7529,28.903,3.5058,43.3545,5.2586"/>
  <path class="cls-6" d="m791.2662,292.9756c11.5081.6668,23.0163,1.3335,34.5244,2.0003,7.2132.4179,14.4264.8358,21.6396,1.2537l3.6814.2133"/>
  <path class="cls-6" d="m791.2773,285.8239c9.9135-.0492,19.827-.0983,29.7404-.1475"/>
  <path class="cls-6" d="m790.8394,278.6857c11.501-.7809,23.0019-1.5617,34.5029-2.3426,7.2087-.4894,14.4174-.9789,21.6261-1.4683l3.6791-.2498"/>
  <path class="cls-6" d="m789.954,271.589c12.5847-1.6533,25.1694-3.3065,37.7541-4.9598"/>
  <path class="cls-6" d="m788.6249,264.562c4.525-.8865,9.0499-1.7729,13.5749-2.6594"/>
  <path class="cls-6" d="m786.8571,257.6322c11.1509-2.9221,22.3019-5.8442,33.4528-8.7663,6.9893-1.8315,13.9786-3.6631,20.9679-5.4946l3.5671-.9348"/>
  <path class="cls-6" d="m784.6577,250.8272c9.632-3.1825,19.264-6.365,28.896-9.5476"/>
  <path class="cls-6" d="m779.0004,237.6979c13.5618-6.4641,27.1237-12.9281,40.6855-19.3922"/>
  <path class="cls-6" d="m775.5648,231.4255c10.0739-5.6034,20.1478-11.2068,30.2217-16.8103,6.3142-3.5122,12.6285-7.0244,18.9427-10.5365,1.0742-.5975,2.1484-1.195,3.2226-1.7925"/>
  <path class="cls-6" d="m771.7422,225.3812c12.4486-7.987,24.8971-15.974,37.3457-23.9609"/>
  <path class="cls-6" d="m767.5475,219.5889c4.2744-3.138,8.5488-6.2761,12.8232-9.4141"/>
  <path class="cls-6" d="m762.9975,214.0714c7.784-6.5048,15.5681-13.0096,23.3521-19.5144"/>
  <path class="cls-6" d="m758.1099,208.8504l4.5165-4.2836"/>
  <path class="cls-6" d="m752.9042,203.9467c8.4841-9.125,16.9683-18.2499,25.4524-27.3749"/>
  <path class="cls-6" d="m747.4009,199.3795c4.5283-5.5294,9.0566-11.0588,13.5849-16.5882"/>
  <path class="cls-6" d="m741.6216,195.1668c6.7293-9.3594,13.4587-18.7188,20.188-28.0782,4.2179-5.8664,8.4358-11.7328,12.6537-17.5992l2.1527-2.994"/>
  <path class="cls-6" d="m735.5892,191.3254c6.1284-9.7635,12.2567-19.5269,18.3851-29.2904,3.8412-6.1197,7.6824-12.2393,11.5236-18.359l1.9604-3.1232"/>
  <path class="cls-6" d="m729.3276,187.8703c5.9483-10.9482,11.8966-21.8964,17.8449-32.8446"/>
  <path class="cls-6" d="m722.8613,184.8152c2.6224-5.6455,5.2449-11.2909,7.8673-16.9364"/>
  <path class="cls-6" d="m716.2159,182.1722c4.1903-10.7389,8.3807-21.4777,12.571-32.2166,2.6265-6.731,5.2529-13.4621,7.8794-20.1931l1.3405-3.4353"/>
  <path class="cls-6" d="m709.4178,179.9516c4.8553-15.1992,9.7106-30.3984,14.5659-45.5976"/>
  <path class="cls-6" d="m702.4936,178.1623c1.5744-6.2604,3.1487-12.5209,4.7231-18.7813"/>
  <path class="cls-6" d="m695.4707,176.8113c1.5568-8.387,3.1137-16.7741,4.6705-25.1611"/>
  <path class="cls-6" d="m688.3768,175.904c1.7248-14.2201,3.4496-28.4402,5.1744-42.6604"/>
  <path class="cls-6" d="m674.0883,175.4327l-.0686-13.8328"/>
  <path class="cls-6" d="m666.9501,175.8706c-1.0493-15.4541-2.0985-30.9083-3.1478-46.3624"/>
  <path class="cls-6" d="m659.8535,176.7559c-1.5015-11.4292-3.0029-22.8585-4.5044-34.2877-.9411-7.1638-1.8822-14.3275-2.8233-21.4913-.1601-1.2187-.3202-2.4374-.4803-3.6561"/>
  <path class="cls-6" d="m652.8264,178.0851c-2.2162-11.3124-4.4323-22.6248-6.6485-33.9372-1.3891-7.0905-2.7781-14.1811-4.1672-21.2716-.2363-1.2062-.4726-2.4125-.7089-3.6187"/>
  <path class="cls-6" d="m645.8967,179.8529c-1.4026-5.3524-2.8052-10.7049-4.2078-16.0573"/>
  <path class="cls-6" d="m639.0916,182.0523l-1.5189-4.5971"/>
  <path class="cls-6" d="m632.4381,184.6746c-3.0076-7.4877-6.0153-14.9755-9.0229-22.4632"/>
  <path class="cls-6" d="m625.9623,187.7096c-6.6646-13.9826-13.3293-27.9653-19.9939-41.9479"/>
  <path class="cls-6" d="m619.69,191.1452c-5.6034-10.0739-11.2068-20.1478-16.8103-30.2217-3.5122-6.3142-7.0244-12.6285-10.5365-18.9427-.5975-1.0742-1.195-2.1484-1.7925-3.2226"/>
  <path class="cls-6" d="m613.6457,194.9678c-5.7269-8.926-11.4538-17.852-17.1807-26.7781"/>
  <path class="cls-6" d="m607.8533,199.1625c-2.0465-2.7877-4.0931-5.5753-6.1396-8.363"/>
  <path class="cls-6" d="m602.3358,203.7125l-8.8702-10.6146"/>
  <path class="cls-6" d="m597.1149,208.6c-8.5742-9.0404-17.1484-18.0807-25.7227-27.1211"/>
  <path class="cls-5" d="m628.6671,385.2302c6.7238,7.8464,13.8656,15.3787,20.5455,23.2231"/>
  <path class="cls-6" d="m608.7734,370.5707c15.8738,18.9022,32.7344,37.0478,48.5044,55.9452"/>
  <path class="cls-6" d="m631.6972,524.3558c15.8738,18.9022,32.7344,37.0478,48.5044,55.9452"/>
  <path class="cls-6" d="m458.4128,59.7854c15.8738,18.9022,32.7344,37.0478,48.5044,55.9452"/>
  <path class="cls-6" d="m436.1654,48.461c15.8738,18.9022,32.7344,37.0478,48.5044,55.9452"/>
  <path class="cls-6" d="m436.1654,16.4053c15.8738,18.9022,32.7344,37.0478,48.5044,55.9452"/>
  <path class="cls-5" d="m597.3784,356.6175c1.392,1.7457,2.7918,3.4851,4.1992,5.2185"/>
  <polyline class="cls-6" points="508.5508 263.3712 531.9827 290.8632 529.4596 296.8613 533.0493 301.3256 531.9921 305.3254 606.8492 393.1059 619.4801 393.5215 645.5058 424.0569"/>
  <path class="cls-8" d="m563.0505,358.8324c18.7881,22.2629,37.8717,44.2727,56.862,66.3621,5.4339,6.3207,10.8602,12.6481,16.2701,18.9896"/>
  <path class="cls-8" d="m539.6388,330.7167c3.3198,4.0483,6.6542,8.0846,10.0011,12.1104"/>
  <path class="cls-6" d="m570.957,377.3078c9.8922,11.97,19.8922,23.97,29.8922,35.97,9,9,15,19,23.6693,26.8723"/>
  <path class="cls-10" d="m534.1711,194.0035c7.3049,8.6815,14.6726,17.3101,22.0724,25.9109"/>
  <path class="cls-6" d="m565.5877,400.5468c15.4587,18.1372,30.9173,36.2744,46.376,54.4117"/>
  <path class="cls-13" d="m498.5862,252.6206c1.7076-1.4023,3.9253-2.2568,6.3529-2.2568,5.3719,0,9.742,4.1572,9.742,9.2673,0,2.0131-.6857,3.8727-1.8361,5.3941.2567.1485.4948.3191.721.502,1.2778-1.6593,2.0409-3.6929,2.0409-5.8961,0-5.5495-4.7856-10.0643-10.6679-10.0643-2.6347,0-5.0449.9105-6.9081,2.4093.2219.2067.4073.4215.5552.6445Z"/>
  <ellipse class="cls-6" cx="504.6197" cy="259.0898" rx="5.8358" ry="5.6543"/>
  <g>
    <path class="cls-13" d="m110.3082,355.3569c-1.4365,1.3955-2.8696,2.8301-4.2593,4.2607l.7178.6973c1.3828-1.4248,2.8091-2.8516,4.2388-4.2412l-.6973-.7168Z"/>
    <path class="cls-13" d="m209.8853,302.2446l.2061.9785c1.9507-.4111,3.9302-.7969,5.8848-1.1475l-.1768-.9844c-1.9639.3525-3.9536.7402-5.9141,1.1533Z"/>
    <path class="cls-13" d="m221.7447,300.1147l.1475.9883c1.9829-.2959,3.9819-.5635,5.9419-.7959l-.1177-.9922c-1.9697.2334-3.979.502-5.9717.7998Z"/>
    <path class="cls-13" d="m233.7096,298.6918l.0889.9961c1.9756-.1758,3.9873-.3252,5.9795-.4443l-.0596-.998c-2.002.1201-4.0234.2695-6.0088.4463Z"/>
    <path class="cls-13" d="m198.1739,305.0766l.2642.9648c1.9019-.5215,3.8555-1.0254,5.8057-1.4971l-.2354-.9727c-1.96.4756-3.9229.9814-5.8345,1.5049Z"/>
    <path class="cls-13" d="m80.8228,393.2504l-.8447-.5352c-1.064,1.6807-2.123,3.4121-3.1484,5.1465l.8604.5098c1.0205-1.7266,2.0747-3.4492,3.1328-5.1211Z"/>
    <path class="cls-13" d="m138.8648,333.4282l-.5596-.8281c-1.6509,1.1143-3.3115,2.2715-4.9365,3.4404l.584.8125c1.6167-1.1631,3.2695-2.3154,4.9121-3.4248Z"/>
    <path class="cls-13" d="m148.9786,327.0258l-.5098-.8613c-1.7129,1.0146-3.4385,2.0713-5.1289,3.1416l.5352.8457c1.6816-1.0654,3.3989-2.1172,5.1035-3.126Z"/>
    <path class="cls-13" d="m170.2349,316.0717l-.4043-.9141c-1.8345.8115-3.6714,1.6572-5.4585,2.5117l.4316.9023c1.7783-.8506,3.606-1.6924,5.4312-2.5Z"/>
    <path class="cls-13" d="m159.4474,321.2319l-.458-.8887c-1.7881.9219-3.5723,1.875-5.3032,2.832l.4844.875c1.7222-.9531,3.4976-1.9014,5.2769-2.8184Z"/>
    <path class="cls-13" d="m129.1417,340.4223l-.6074-.7949c-1.5742,1.2031-3.1646,2.458-4.7271,3.7285l.6309.7754c1.5547-1.2637,3.1372-2.5127,4.7036-3.709Z"/>
    <path class="cls-13" d="m119.8443,347.9799l-.6533-.7578c-1.5088,1.3018-3.0234,2.6475-4.501,4.001l.6758.7383c1.4702-1.3477,2.9771-2.6865,4.4785-3.9814Z"/>
    <path class="cls-13" d="m192.6788,307.7114l-.293-.957c-1.9082.584-3.8379,1.2061-5.7349,1.8496l.3213.9473c1.8877-.6406,3.8076-1.2598,5.7065-1.8398Z"/>
    <path class="cls-13" d="m453.5191,482.9741l.9961-.0898c-.1777-1.9922-.3882-4.0088-.625-5.9932l-.9932.1191c.2358,1.9746.4448,3.9805.6221,5.9639Z"/>
    <path class="cls-13" d="m454.2354,494.9428l1-.0312c-.0615-2.0049-.1528-4.0303-.272-6.0205l-.998.0605c.1182,1.9795.209,3.9951.27,5.9912Z"/>
    <path class="cls-13" d="m181.3238,311.56l-.3496-.9375c-1.8838.7031-3.7725,1.4395-5.6143,2.1895l.377.9258c1.8325-.7461,3.7124-1.4795,5.5869-2.1777Z"/>
    <path class="cls-13" d="m102.6539,364.6782l-.7373-.6758c-1.3428,1.4668-2.6895,2.9834-4.0029,4.5068l.7578.6523c1.3066-1.5156,2.6465-3.0244,3.9824-4.4834Z"/>
    <path class="cls-13" d="m453.0885,470.9194c-.2954-1.9756-.6245-3.9756-.979-5.9453l-.9844.1777c.353,1.959.6807,3.9502.9741,5.916l.9893-.1484Z"/>
    <path class="cls-13" d="m64.3751,425.2709l-.9268-.375c-.7568,1.8691-1.4922,3.7646-2.1855,5.6338l.9375.3477c.6899-1.8604,1.4214-3.7461,2.1748-5.6064Z"/>
    <path class="cls-13" d="m94.8214,373.7651l-.7764-.6309c-1.2524,1.541-2.5078,3.1348-3.7314,4.7354l.7949.6074c1.2173-1.5938,2.4663-3.1787,3.7129-4.7119Z"/>
    <path class="cls-13" d="m56.6978,448.0385l-.9648-.2617c-.5239,1.9277-1.0264,3.8916-1.4932,5.8379l.9727.2324c.4644-1.9355.9639-3.8896,1.4854-5.8086Z"/>
    <path class="cls-13" d="m60.193,436.5473l-.9473-.3203c-.6406,1.9004-1.2612,3.8379-1.8457,5.7588l.957.291c.5811-1.9111,1.1987-3.8389,1.8359-5.7295Z"/>
    <path class="cls-13" d="m87.5352,383.2973l-.8115-.584c-1.1606,1.6133-2.3203,3.2793-3.4468,4.9502l.8291.5586c1.1211-1.6621,2.2749-3.3193,3.4292-4.9248Z"/>
    <path class="cls-13" d="m245.7379,297.975l.0303,1c1.9819-.0605,3.999-.0918,5.9956-.0938l-.001-1c-2.0063.002-4.0332.0332-6.0249.0938Z"/>
    <path class="cls-13" d="m74.71,403.5854l-.8755-.4824c-.9692,1.7559-1.9238,3.5479-2.8379,5.3271l.8896.457c.9092-1.7705,1.8594-3.5537,2.8237-5.3018Z"/>
    <path class="cls-13" d="m69.2203,414.2709l-.9023-.4297c-.8599,1.8037-1.7065,3.6504-2.5171,5.4912l.915.4023c.8066-1.8311,1.6494-3.6689,2.5044-5.4639Z"/>
    <path class="cls-13" d="m389.1554,351.1137l-.6748.7383c1.4595,1.335,2.9282,2.7178,4.3662,4.1104l.6953-.7188c-1.4443-1.3994-2.9199-2.7881-4.3867-4.1299Z"/>
    <path class="cls-13" d="m397.8057,359.5024l-.7168.6973c1.3784,1.418,2.7627,2.8848,4.1143,4.3584l.7373-.6758c-1.3584-1.4805-2.7495-2.9541-4.1348-4.3799Z"/>
    <path class="cls-13" d="m405.943,368.3823l-.7568.6543c1.3047,1.5098,2.6001,3.0547,3.8496,4.5908l.7754-.6309c-1.2554-1.5439-2.5571-3.0967-3.8682-4.6143Z"/>
    <path class="cls-13" d="m450.0352,542.9067l.9785.2051c.4092-1.9561.7949-3.9463,1.147-5.916l-.9844-.1758c-.3501,1.96-.7339,3.9404-1.1411,5.8867Z"/>
    <path class="cls-13" d="m434.6832,588.3217l.9023.4316c.8647-1.8115,1.7129-3.6582,2.521-5.4893l-.915-.4043c-.8042,1.8223-1.6479,3.6602-2.5083,5.4619Z"/>
    <path class="cls-13" d="m452.1422,531.103l.9893.1465c.2935-1.9844.5605-3.9941.7935-5.9736l-.9932-.1172c-.2319,1.9707-.4976,3.9707-.7896,5.9443Z"/>
    <path class="cls-13" d="m453.5455,519.1957l.9961.0879c.1753-1.999.3232-4.0205.4395-6.0098l-.998-.0586c-.1157,1.9795-.2632,3.9922-.4375,5.9805Z"/>
    <path class="cls-13" d="m455.3311,500.937h-1l.0005.293c0,1.9893-.0293,4.0068-.0874,5.9951l1,.0293c.0581-1.998.0874-4.0254.0874-6.0273l-.0005-.29Z"/>
    <path class="cls-13" d="m447.2296,554.562l.9648.2637c.5269-1.9336,1.0308-3.8975,1.4976-5.8369l-.9727-.2344c-.4644,1.9307-.9658,3.8848-1.4897,5.8076Z"/>
    <path class="cls-13" d="m449.6222,453.184l-.9717.2363c.4702,1.9414.916,3.9092,1.3242,5.8486l.9785-.207c-.4106-1.9482-.8584-3.9258-1.3311-5.8779Z"/>
    <path class="cls-13" d="m439.5367,577.3247l.9268.375c.7568-1.8652,1.4937-3.7607,2.1895-5.6318l-.9375-.3477c-.6924,1.8613-1.4253,3.7471-2.1787,5.6045Z"/>
    <path class="cls-13" d="m443.7262,566.0522l.9473.3203c.644-1.9062,1.2661-3.8438,1.8496-5.7578l-.9565-.291c-.5806,1.9043-1.1997,3.832-1.8403,5.7285Z"/>
    <path class="cls-13" d="m305.3658,304.9614l-.2617.9648c1.9253.5225,3.8638,1.0801,5.7622,1.6572l.291-.957c-1.9082-.5801-3.8564-1.1406-5.7915-1.665Z"/>
    <path class="cls-13" d="m293.4434,303.1323c1.9521.4062,3.9204.8467,5.8506,1.3096l.2334-.9727c-1.9404-.4648-3.9185-.9072-5.8799-1.3154l-.2041.9785Z"/>
    <path class="cls-13" d="m316.9156,308.4692l-.3193.9473c1.9038.6416,3.8115,1.3164,5.6709,2.0059l.3477-.9375c-1.8687-.6934-3.7861-1.3711-5.6992-2.0156Z"/>
    <path class="cls-13" d="m257.7584,298.9623c1.9849.0557,4,.1416,5.9902.2559l.0576-.998c-2-.1152-4.0254-.2012-6.0195-.2578l-.0283,1Z"/>
    <path class="cls-13" d="m269.7291,299.6489c1.9766.1719,3.9834.376,5.9648.6074l.1162-.9941c-1.9917-.2314-4.0083-.4365-5.9941-.6094l-.0869.9961Z"/>
    <path class="cls-13" d="m281.6383,301.0395c1.9863.291,3.9775.6143,5.918.959l.1748-.9844c-1.9502-.3467-3.9512-.6709-5.9473-.9648l-.1455.9902Z"/>
    <path class="cls-13" d="m328.2496,312.6664l-.375.9277c1.8438.7461,3.7065,1.5332,5.5371,2.3398l.4033-.916c-1.8398-.8096-3.7124-1.6006-5.5654-2.3516Z"/>
    <path class="cls-13" d="m380.0235,343.2456l-.6299.7773c1.5386,1.248,3.0869,2.543,4.6021,3.8467l.6523-.7578c-1.5225-1.3105-3.0781-2.6113-4.6245-3.8662Z"/>
    <path class="cls-13" d="m360.4366,329.185l-.5342.8457c1.6724,1.0566,3.3638,2.1602,5.0278,3.2803l.5586-.8301c-1.6724-1.125-3.3721-2.2344-5.0522-3.2959Z"/>
    <path class="cls-13" d="m370.44,335.9272l-.583.8125c1.6167,1.1602,3.2393,2.3613,4.8228,3.5703l.6064-.7949c-1.5913-1.2148-3.2217-2.4219-4.8462-3.5879Z"/>
    <path class="cls-13" d="m339.3057,317.5336l-.4297.9023c1.7949.8555,3.6069,1.752,5.3853,2.665l.457-.8906c-1.7876-.917-3.6084-1.8174-5.4126-2.6768Z"/>
    <path class="cls-13" d="m350.047,323.0463l-.4824.875c1.7461.9629,3.5005,1.9648,5.2148,2.9785l.5088-.8613c-1.7227-1.0176-3.4858-2.0254-5.2412-2.9922Z"/>
  </g>
  <polygon class="cls-13" points="763.8703 103.3727 774.9228 101.4596 764.287 105.023 766.2001 116.0755 762.6367 105.4397 751.5842 107.3528 762.22 103.7894 760.3069 92.7369 763.8703 103.3727"/>
  <polygon class="cls-13" points="775.3736 257.3801 781.407 260.7999 774.9257 258.3324 771.5059 264.3657 773.9734 257.8844 767.94 254.4646 774.4214 256.9321 777.8411 250.8987 775.3736 257.3801"/>
  <polygon class="cls-13" points="652.8264 93.4824 651.2559 91.81 649.0313 91.2493 650.7036 89.6787 651.2644 87.4541 652.8349 89.1265 655.0595 89.6873 653.3872 91.2578 652.8264 93.4824"/>
  <polygon class="cls-13" points="803.0049 149.7448 803.5363 153.023 806.7622 153.563 803.5363 154.103 803.0049 157.3813 802.4735 154.103 799.2476 153.563 802.4735 153.023 803.0049 149.7448"/>
  <polygon class="cls-13" points="838.5419 177.5278 836.8484 181.5354 840.1012 184.4247 836.0936 182.7313 833.2043 185.9841 834.8977 181.9765 831.6449 179.0871 835.6525 180.7806 838.5419 177.5278"/>
  <polygon class="cls-13" points="849.9838 163.8349 848.0348 166.0286 849.3828 168.6762 847.2997 166.6238 844.7856 168.0434 846.7346 165.8496 845.3866 163.202 847.4697 165.2544 849.9838 163.8349"/>
  <line class="cls-1" x1="805.4524" y1="155.9286" x2="830.8731" y2="178.1623"/>
  <line class="cls-1" x1="844.3095" y1="168.7717" x2="839.1032" y2="176.5718"/>
  <ellipse class="cls-6" cx="534.1711" cy="421.9638" rx="19.4396" ry="18.7075"/>
  <ellipse class="cls-6" cx="537.348" cy="423.9002" rx="23.5564" ry="24.5368"/>
  <circle class="cls-6" cx="536.2204" cy="419.0112" r="14.4419"/>
  <circle class="cls-9" cx="559.148" cy="433.4531" r="2.4444"/>
  <circle class="cls-6" cx="550.6135" cy="509.4715" r="8.5345"/>
  <g>
    <circle class="cls-6" cx="89.1952" cy="257.1544" r="15.6303"/>
    <path class="cls-7" d="m106.3765,291.2918c-5.1976,2.6388-11.0681,4.1364-17.2853,4.1364-21.1318,0-38.3237-17.1919-38.3237-38.3232s17.1919-38.3237,38.3237-38.3237c20.0678,0,36.5712,15.5081,38.1827,35.1678.339.0155.6783.0638,1.0134.1417-1.5461-20.2787-18.5283-36.3095-39.1962-36.3095-21.6831,0-39.3237,17.6406-39.3237,39.3237s17.6406,39.3232,39.3237,39.3232c6.6429,0,12.9026-1.662,18.3956-4.5823-.4142-.1323-.7853-.319-1.1104-.5541Z"/>
    <g>
      <path class="cls-13" d="m133.4147,286.8066c-9.4615,14.3398-25.7045,23.8287-44.1325,23.8287-19.7321,0-36.9617-10.8768-46.0389-26.9427-.324.1241-.6583.2139-.996.2732,9.2157,16.4896,26.8402,27.6695,47.0349,27.6695,18.6119,0,35.0408-9.4967,44.7169-23.893-.23-.2897-.4266-.6004-.5844-.9357Z"/>
      <path class="cls-13" d="m36.9585,250.3906c3.6082-25.6536,25.6909-45.4584,52.3237-45.4584,2.4871,0,4.9308.1855,7.3274.5195-.1909-.3478-.3212-.7028-.4052-1.0594-2.2684-.2926-4.5754-.4601-6.9222-.4601-27.3205,0-49.938,20.4553-53.3817,46.8521.3368-.1672.6908-.3011,1.058-.3937Z"/>
    </g>
    <circle class="cls-12" cx="117.7173" cy="231.8813" r="8.3648"/>
    <circle class="cls-13" cx="89.1952" cy="311.6353" r="3.9943"/>
    <circle class="cls-2" cx="89.0275" cy="257.1048" r="18.5881"/>
    <g>
      <path class="cls-13" d="m47.5556,275.9165l.2139.9766c1.9009-.416,3.8604-.8569,5.8721-1.3237l-.2256-.9741c-2.0078.4658-3.9634.9062-5.8604,1.3213Z"/>
      <path class="cls-13" d="m59.2617,273.2046l.2363.9717c1.9092-.4653,3.8574-.9502,5.8403-1.4541l-.2461-.9688c-1.98.5029-3.9253.9868-5.8306,1.4512Z"/>
      <path class="cls-13" d="m38.8457,264.8492l.3623.9326c1.7993-.6992,3.6733-1.4102,5.6167-2.1313l-.3477-.9375c-1.9482.7231-3.8271,1.436-5.6313,2.1362Z"/>
      <path class="cls-13" d="m61.5161,256.7246l.3164.9482c1.8687-.624,3.7729-1.2505,5.7095-1.8784l-.3086-.9512c-1.9395.6289-3.8467,1.2563-5.7173,1.8813Z"/>
      <path class="cls-13" d="m70.9091,270.2466l.2549.9668c1.9116-.5044,3.8501-1.0239,5.813-1.5596l-.2637-.9648c-1.96.5347-3.8955,1.0542-5.8042,1.5576Z"/>
      <path class="cls-13" d="m13.2963,279.4966c-.0103-.0347-.0151-.0708-.0073-.2026l-.9863-.1631c-.0146.0869-.0215.1719-.0215.2544,0,.1357.019.2686.0562.394.3403,1.1587,2.0879,1.6982,5.5039,1.6982l.1396-.0005v-1l-.1445.0005c-3.9448,0-4.4722-.7505-4.54-.981Z"/>
      <path class="cls-13" d="m16.8867,274.8428l.5186.8555c1.4165-.8589,3.186-1.8096,5.2588-2.8271l-.4404-.8975c-2.0996,1.0303-3.895,1.9956-5.3369,2.8691Z"/>
      <path class="cls-13" d="m82.5058,267.083l.2705.9629c1.9106-.5376,3.8403-1.0889,5.7861-1.6533l-.2783-.96c-1.9438.5635-3.8706,1.1138-5.7783,1.6504Z"/>
      <path class="cls-13" d="m35.7827,278.2915l.1797.9834c1.8809-.3428,3.855-.7231,5.9146-1.1401l-.1982-.9805c-2.0527.416-4.021.7954-5.896,1.1372Z"/>
      <path class="cls-13" d="m27.7002,269.4356l.4033.915c1.7007-.7495,3.5596-1.5391,5.5254-2.3457l-.3799-.9248c-1.9736.8096-3.8403,1.6025-5.5488,2.3555Z"/>
      <path class="cls-13" d="m23.9267,280.0845l.1074.9941c1.7915-.1943,3.8047-.4629,5.9839-.7988l-.1523-.9883c-2.1646.3335-4.1631.6001-5.939.793Z"/>
      <path class="cls-13" d="m50.1347,260.6529l.3359.9414c1.8413-.6572,3.7329-1.3213,5.6714-1.9902l-.3262-.9453c-1.9424.6699-3.8369,1.335-5.6812,1.9941Z"/>
      <path class="cls-13" d="m142.8623,234.9546l.1777.9844c2.0815-.3755,4.0728-.708,5.9185-.9883l-.1504-.9883c-1.8545.2812-3.855.6152-5.9458.9922Z"/>
      <path class="cls-13" d="m131.0522,237.3223l.2129.9775c2.0283-.4414,3.9902-.8525,5.8784-1.2329l-.1973-.9805c-1.8931.3813-3.8599.7935-5.894,1.2358Z"/>
      <path class="cls-13" d="m139.5922,248.3687l.3633.9316c1.957-.7627,3.8237-1.5103,5.5933-2.2393l-.3809-.9248c-1.7637.7271-3.6245,1.4717-5.5757,2.2324Z"/>
      <path class="cls-13" d="m150.6889,243.7798l.4053.9141c2.0059-.8892,3.8462-1.7485,5.4697-2.5542l-.4443-.8955c-1.6108.7988-3.438,1.6519-5.4307,2.5356Z"/>
      <path class="cls-13" d="m94.0488,263.7373l.2861.958c1.9414-.5791,3.8628-1.1602,5.7607-1.7422l-.293-.9561c-1.896.5811-3.8145,1.1616-5.7539,1.7402Z"/>
      <path class="cls-13" d="m166.0532,234.5288l-.959.2832c.0103.0347.0151.0708.0151.1113,0,.3384-.3657,1.3535-3.7539,3.46l.5283.8496c2.8828-1.793,4.2256-3.1621,4.2256-4.3096,0-.1357-.019-.2686-.0562-.3945Z"/>
      <path class="cls-13" d="m154.7963,233.1836l.1035.9941c2.2124-.23,4.1147-.3467,5.6543-.3467l.2905.0015.0098-1-.3003-.0015c-1.5737,0-3.5112.1187-5.7578.3525Z"/>
      <path class="cls-13" d="m105.5419,260.2119l.3008.9531c1.9404-.6123,3.8525-1.2246,5.7324-1.8354l-.3086-.9512c-1.8779.6099-3.7871,1.2212-5.7246,1.8335Z"/>
      <path class="cls-13" d="m107.6523,242.9834l.2539.9668c1.9702-.5181,3.9106-1.019,5.8188-1.5024l-.2461-.9697c-1.9102.4844-3.8535.9863-5.8267,1.5054Z"/>
      <path class="cls-13" d="m128.3335,252.5655l.3369.9414c1.9438-.6958,3.8315-1.3848,5.6562-2.0645l-.3486-.9375c-1.8218.6787-3.7046,1.3657-5.6445,2.0605Z"/>
      <path class="cls-13" d="m116.9746,256.4966l.3174.9482c1.9399-.6494,3.8413-1.2964,5.6992-1.939l-.3271-.9453c-1.855.6416-3.7524,1.2876-5.6895,1.936Z"/>
      <path class="cls-13" d="m119.3208,240.0293l.2363.9717c1.9932-.4839,3.9434-.9458,5.8457-1.3853l-.2251-.9746c-1.9058.4404-3.8599.9033-5.8569,1.3882Z"/>
    </g>
    <circle class="cls-9" cx="33.6289" cy="268.0459" r="5.8095"/>
  </g>
  <path class="cls-12" d="m143.6166,406.2045c-10.35,0-18.57-8.24-18.58-18.17-.0099-8.94,6.63-16.62,15.02-18.24-5.83,5.56-7.93,10.38-7.92,17.69.01,11.21,9.7,17.58,11.48,18.72Z"/>
  <ellipse class="cls-6" cx="288.2778" cy="363.1581" rx="18.2857" ry="18.8095"/>
  <path class="cls-9" d="m534.3012,381.8619c-3.8269,1.4123-7.9906-.5129-9.3493-4.1832-1.2235-3.3042.1837-7.0499,3.0648-8.7937-1.397,2.8513-1.5158,4.9201-.5146,7.6216,1.5333,4.1436,5.9854,5.1767,6.7991,5.3553Z"/>
  <path class="cls-9" d="m277.6656,213.8303c-3.8269,1.4123-7.9906-.5129-9.3493-4.1832-1.2235-3.3042.1837-7.0499,3.0648-8.7937-1.397,2.8513-1.5158,4.9201-.5146,7.6216,1.5333,4.1436,5.9854,5.1767,6.7991,5.3553Z"/>
  <path class="cls-13" d="m234.2871,111.1268l4.3695,24.4039c.0443.2473.2412.439.4896.4767l26.2396,3.9761c.6651.1008.6651,1.0594,0,1.1601l-26.2396,3.9761c-.2484.0376-.4453.2293-.4896.4767l-4.3695,24.4039c-.1154.6444-1.0396.6444-1.155,0l-4.3695-24.4039c-.0443-.2473-.2412-.439-.4896-.4767l-26.2396-3.9761c-.6651-.1008-.6651-1.0594,0-1.1601l26.2396-3.9761c.2484-.0376.4453-.2293.4896-.4767l4.3695-24.4039c.1154-.6444,1.0396-.6444,1.155,0Z"/>
  <path class="cls-13" d="m349.6674,221.0996l.7785,6.1007c.0079.0618.043.1098.0872.1192l4.6751.994c.1185.0252.1185.2648,0,.29l-4.6751.994c-.0443.0094-.0793.0573-.0872.1192l-.7785,6.1007c-.0206.1611-.1852.1611-.2058,0l-.7785-6.1007c-.0079-.0618-.043-.1098-.0872-.1192l-4.6751-.994c-.1185-.0252-.1185-.2648,0-.29l4.6751-.994c.0443-.0094.0793-.0573.0872-.1192l.7785-6.1007c.0206-.1611.1852-.1611.2058,0Z"/>
  <path class="cls-13" d="m402.1634,156.8918l.9946,6.5969c.0101.0669.0549.1187.1114.1289l5.9725,1.0748c.1514.0272.1514.2864,0,.3136l-5.9725,1.0748c-.0565.0102-.1014.062-.1114.1289l-.9946,6.5969c-.0263.1742-.2366.1742-.2629,0l-.9946-6.5969c-.0101-.0669-.0549-.1187-.1114-.1289l-5.9725-1.0748c-.1514-.0272-.1514-.2864,0-.3136l5.9725-1.0748c.0565-.0102.1014-.062.1114-.1289l.9946-6.5969c.0263-.1742.2366-.1742.2629,0Z"/>
  <path class="cls-13" d="m360.0849,402.3076l1.3804,6.8783c.014.0697.0762.1237.1547.1344l8.2898,1.1207c.2101.0284.2101.2986,0,.327l-8.2898,1.1207c-.0785.0106-.1407.0646-.1547.1344l-1.3804,6.8783c-.0365.1816-.3285.1816-.3649,0l-1.3804-6.8783c-.014-.0697-.0762-.1237-.1547-.1344l-8.2898-1.1207c-.2101-.0284-.2101-.2986,0-.327l8.2898-1.1207c.0785-.0106.1407-.0646.1547-.1344l1.3804-6.8783c.0365-.1816.3285-.1816.3649,0Z"/>
  <path class="cls-13" d="m406.5526,465.5061l4.3695,24.4039c.0443.2473.2412.439.4896.4767l26.2396,3.9761c.6651.1008.6651,1.0594,0,1.1601l-26.2396,3.9761c-.2484.0376-.4453.2293-.4896.4767l-4.3695,24.4039c-.1154.6444-1.0396.6444-1.155,0l-4.3695-24.4039c-.0443-.2473-.2412-.439-.4896-.4767l-26.2396-3.9761c-.6651-.1008-.6651-1.0594,0-1.1601l26.2396-3.9761c.2484-.0376.4453-.2293.4896-.4767l4.3695-24.4039c.1154-.6444,1.0396-.6444,1.155,0Z"/>
  <path class="cls-13" d="m206.8805,369.1763l.5758,3.2813c.0058.0333.0318.059.0645.0641l3.4578.5346c.0876.0136.0876.1424,0,.156l-3.4578.5346c-.0327.0051-.0587.0308-.0645.0641l-.5758,3.2813c-.0152.0866-.137.0866-.1522,0l-.5758-3.2813c-.0058-.0333-.0318-.059-.0645-.0641l-3.4578-.5346c-.0876-.0136-.0876-.1424,0-.156l3.4578-.5346c.0327-.0051.0587-.0308.0645-.0641l.5758-3.2813c.0152-.0866.137-.0866.1522,0Z"/>
  <path class="cls-13" d="m29.555,326.9918l1.6181,8.1752c.0164.0829.0893.1471.1813.1597l9.7173,1.332c.2463.0338.2463.3549,0,.3886l-9.7173,1.332c-.092.0126-.1649.0768-.1813.1597l-1.6181,8.1752c-.0427.2159-.385.2159-.4277,0l-1.6181-8.1752c-.0164-.0829-.0893-.1471-.1813-.1597l-9.7173-1.332c-.2463-.0338-.2463-.3549,0-.3886l9.7173-1.332c.092-.0126.1649-.0768.1813-.1597l1.6181-8.1752c.0427-.2159.385-.2159.4277,0Z"/>
  <g>
    <path class="cls-13" d="m175.7701,357.8334l.1895.9824c32.668-6.3096,64.5688-16.8174,94.8174-31.2344l-.4307-.9023c-30.1714,14.3799-61.9917,24.8623-94.5762,31.1543Z"/>
    <path class="cls-13" d="m422.8131,200.728l.8027.5967c19.8755-26.749,36.5854-55.9111,49.6655-86.6763l-.9199-.3916c-13.0498,30.6924-29.7202,59.7856-49.5483,86.4712Z"/>
    <path class="cls-13" d="m101.5494,364.9213c-7.0381,0-14.1919-.1924-21.2622-.5703-17.9199-.9619-35.8809-3.1562-53.3833-6.5234l-.1895.9824c17.5479,3.376,35.5542,5.5762,53.519,6.5391,7.0884.3799,14.2603.5723,21.3159.5723,8.2485,0,16.5923-.2627,24.7983-.7793l-.0625-.998c-8.1855.5156-16.5078.7773-24.7358.7773Z"/>
    <path class="cls-13" d="m313.9503,302.4545l.5391.8418c27.9893-17.9043,53.8755-39.3223,76.9395-63.6587l-.7256-.6875c-23.0083,24.2773-48.832,45.6431-76.7529,63.5044Z"/>
  </g>
  <g>
    <path class="cls-13" d="m157.7057,61.747l.582.8135c5.4141-3.874,10.6553-8.1143,15.5791-12.604l-.6738-.7393c-4.8945,4.4634-10.1055,8.6792-15.4873,12.5298Z"/>
    <path class="cls-13" d="m24.7696,90.2582c6.5034,1.3892,13.1694,2.4023,19.813,3.0117l.0918-.9961c-6.6045-.606-13.231-1.6128-19.6958-2.9932l-.209.9775Z"/>
    <path class="cls-13" d="m94.2501,89.5234l.2021.9795c6.5249-1.3457,13.0361-3.1001,19.3521-5.2144l-.3174-.9482c-6.2783,2.1016-12.7505,3.8457-19.2368,5.1831Z"/>
  </g>
  <g>
    <path class="cls-13" d="m192.0006,450.2456c-6.5522-1.1318-13.2349-2.0605-19.8633-2.7617l-.21,1.9883c6.5845.6973,13.2236,1.6201,19.7324,2.7441l.3408-1.9707Z"/>
    <path class="cls-13" d="m53.0348,458.1918c-6.3867,1.8799-12.793,3.998-19.0415,6.2969l.6904,1.877c6.207-2.2832,12.5713-4.3877,18.9155-6.2559l-.5645-1.918Z"/>
    <path class="cls-13" d="m122.0611,446.268c-6.6514.375-13.3711.9746-19.9736,1.7822l.2432,1.9844c6.5591-.8018,13.2349-1.3975,19.8428-1.7705l-.1123-1.9961Z"/>
    <path class="cls-13" d="m259.2257,470.0493c-6.1406-2.6113-12.4434-5.0488-18.7329-7.2461l-.6592,1.8887c6.248,2.1826,12.5093,4.6035,18.6099,7.1973l.7822-1.8398Z"/>
    <path class="cls-13" d="m320.1417,504.7084c-5.374-3.9355-10.9492-7.7441-16.5703-11.3203l-1.0732,1.6875c5.5845,3.5527,11.123,7.3359,16.4619,11.2461l1.1816-1.6133Z"/>
    <path class="cls-13" d="m371.586,552.2729c-4.3394-5.0439-8.9048-10.0127-13.5688-14.7686l-1.4277,1.4004c4.6338,4.7246,9.1689,9.6611,13.48,14.6729l1.5166-1.3047Z"/>
  </g>
  <g>
    <path class="cls-13" d="m41.2305,516.9657c.3915.5589.6782,1.1786.8428,1.8153,6.3614-2.6661,12.8316-5.0809,19.4058-7.2181l-.6182-1.9023c-6.6508,2.162-13.1959,4.606-19.6304,7.3051Z"/>
    <path class="cls-13" d="m144.8238,499.2993c25.0542.5088,49.7363,4.6875,73.3599,12.4199l.6221-1.9004c-23.8115-7.7939-48.689-12.0059-73.9409-12.5195l-.041,2Z"/>
    <path class="cls-13" d="m345.4324,602.1032c-14.5331-19.9659-31.8402-37.6949-51.4728-52.6994l-1.2148,1.5898c19.2518,14.7127,36.2484,32.0677,50.5632,51.5943.6598-.2897,1.3871-.4567,2.1245-.4847Z"/>
    <path class="cls-13" d="m222.9181,513.3207c23.5161,8.2197,45.6675,19.8887,65.8384,34.6846l1.1826-1.6133c-20.3306-14.9121-42.6577-26.6748-66.3608-34.96l-.6602,1.8887Z"/>
    <path class="cls-13" d="m65.65,508.1567l.5801,1.9141c23.689-7.1826,48.3716-10.8252,73.3623-10.8252h.2534v-2h-.2534c-25.1875,0-50.0649,3.6709-73.9424,10.9111Z"/>
  </g>
  <g>
    <polygon class="cls-3" points="271.7139 267.0177 254.5769 262.5073 268.4173 249.6064 271.7139 267.0177"/>
    <polygon class="cls-11" points="280.3596 276.6655 242.9583 265.8727 272.2182 238.5989 280.3596 276.6655"/>
  </g>
  <circle class="cls-9" cx="371.4852" cy="286.3723" r="5.9963"/>
  <circle class="cls-12" cx="197.462" cy="206.9396" r="1.6604"/>
  <circle class="cls-12" cx="299.991" cy="168.6533" r=".4636"/>
  <circle class="cls-9" cx="78.8263" cy="338.1186" r="6.138"/>
  <circle class="cls-9" cx="141.6514" cy="131.043" r="4.5079"/>
  <circle class="cls-12" cx="420.1237" cy="203.7503" r="5.4015"/>
  <circle class="cls-12" cx="418.0386" cy="385.1518" r="11.4434"/>
  <circle class="cls-12" cx="267.8844" cy="391.6262" r="1.4797"/>
  <circle class="cls-12" cx="383.7832" cy="280.6127" r="1.7624"/>
  <circle class="cls-12" cx="363.5063" cy="293.904" r=".8107"/>
  <circle class="cls-12" cx="248.7508" cy="122.6672" r="3.0129"/>
  <circle class="cls-12" cx="22.8851" cy="167.9589" r="3.1097"/>
  <circle class="cls-12" cx="3.4648" cy="389.7505" r="2.9648"/>
  <ellipse class="cls-12" cx="96.1845" cy="470.9762" rx="3.6171" ry="4.4444"/>
  <circle class="cls-12" cx="744.8021" cy="430.6028" r="2.8502"/>
  <circle class="cls-12" cx="754.4412" cy="433.2333" r=".2479"/>
  <circle class="cls-12" cx="701.3174" cy="77.6098" r="1.1762"/>
  <circle class="cls-9" cx="883.1667" cy="9.5159" r="9.0159"/>
  <circle class="cls-12" cx="905.6902" cy="19.7542" r="3.349"/>
  <circle class="cls-12" cx="550.3371" cy="65.8485" r="11.7612"/>
  <circle class="cls-12" cx="341.7972" cy="258.3784" r="2.8838"/>
  <circle class="cls-12" cx="229.2423" cy="208.363" r=".7888"/>
  <circle class="cls-12" cx="190.1219" cy="273.4222" r="3.4709"/>
  <path class="cls-13" d="m197.6013,66.2802l1.0543,9.3925c.0107.0952.0582.169.1181.1835l6.3313,1.5303c.1605.0388.1605.4077,0,.4465l-6.3313,1.5303c-.0599.0145-.1075.0883-.1181.1835l-1.0543,9.3925c-.0278.248-.2509.248-.2787,0l-1.0543-9.3925c-.0107-.0952-.0582-.169-.1181-.1835l-6.3313-1.5303c-.1605-.0388-.1605-.4077,0-.4465l6.3313-1.5303c.0599-.0145.1075-.0883.1181-.1835l1.0543-9.3925c.0278-.248.2509-.248.2787,0Z"/>
  <path class="cls-13" d="m218.9513,419.9701l.949,10.7901c.0096.1094.0524.1941.1063.2108l5.6989,1.758c.1444.0446.1444.4684,0,.513l-5.6989,1.758c-.054.0166-.0967.1014-.1063.2108l-.949,10.7901c-.0251.2849-.2258.2849-.2509,0l-.949-10.7901c-.0096-.1094-.0524-.1941-.1063-.2108l-5.6989-1.758c-.1444-.0446-.1444-.4684,0-.513l5.6989-1.758c.054-.0166.0967-.1014.1063-.2108l.949-10.7901c.0251-.2849.2258-.2849.2509,0Z"/>
  <ellipse class="cls-13" cx="260.6621" cy="404.4417" rx="5.1775" ry="4.5315"/>
  <g>
    <line class="cls-1" x1="374.6936" y1="80.178" x2="374.6936" y2="209.3934"/>
    <line class="cls-1" x1="316.6091" y1="144.7857" x2="443.2195" y2="144.7857"/>
    <line class="cls-1" x1="360.5718" y1="159.1077" x2="389.2758" y2="131.1888"/>
    <line class="cls-1" x1="363.1287" y1="131.1888" x2="386.426" y2="160.2506"/>
  </g>
  <circle class="cls-6" cx="910.1588" cy="471.1684" r="9.3067"/>
  <g>
    <path class="cls-13" d="m830.6217,516.2685l-.6816-.7324c-2.4424,2.2725-4.8535,4.6289-7.167,7.0049l.7168.6973c2.3018-2.3643,4.7012-4.709,7.1318-6.9697Z"/>
    <path class="cls-13" d="m845.274,502.6494c-2.6377,2-5.2705,4.1035-7.8262,6.252l.6426.7656c2.5439-2.1377,5.1641-4.2305,7.7871-6.2207l-.6035-.7969Z"/>
    <path class="cls-13" d="m815.9635,529.8935c-2.1934,2.4902-4.3594,5.0762-6.4375,7.6855l.7832.623c2.0664-2.5967,4.2217-5.1699,6.4043-7.6484l-.75-.6602Z"/>
    <path class="cls-13" d="m879.3746,481.7861c-2.9951,1.4414-5.9912,2.9785-8.9043,4.5654l.4785.8789c2.8984-1.5801,5.8799-3.1084,8.8594-4.5439l-.4336-.9004Z"/>
    <path class="cls-13" d="m897.8014,474.0331c-3.1113,1.1279-6.2441,2.3545-9.3086,3.6436l.3877.9219c3.0498-1.2832,6.166-2.5029,9.2627-3.626l-.3418-.9395Z"/>
    <path class="cls-13" d="m861.8062,491.3603c-2.835,1.7344-5.6631,3.5635-8.4072,5.4375l.5645.8262c2.7295-1.8652,5.5439-3.6855,8.3643-5.4102l-.5215-.8535Z"/>
    <path class="cls-13" d="m803.4801,545.5781c-1.9404,2.7061-3.8379,5.4971-5.6396,8.2949l.8398.541c1.7939-2.7842,3.6816-5.5605,5.6123-8.2539l-.8125-.582Z"/>
    <path class="cls-13" d="m792.6226,562.4414c-1.6621,2.8896-3.2705,5.8574-4.7822,8.8213l.8906.4551c1.5039-2.9492,3.1055-5.9023,4.7588-8.7783l-.8672-.498Z"/>
    <path class="cls-13" d="m784.4205,580.7255l-.9121-.4082c-1.3643,3.0469-2.667,6.1631-3.8711,9.2646l.9316.3613c1.1992-3.085,2.4951-6.1865,3.8516-9.2178Z"/>
    <path class="cls-13" d="m956.5494,462.3369c-3.3193.1523-6.6816.3916-9.9941.71l.0957.9961c3.2959-.3174,6.6416-.5547,9.9453-.708l-.0469-.998Z"/>
    <path class="cls-13" d="m936.609,464.2558c-3.2822.4814-6.6045,1.0557-9.875,1.7061l.1953.9805c3.2529-.6475,6.5586-1.2178,9.8242-1.6963l-.1445-.9902Z"/>
    <path class="cls-13" d="m976.5855,462.4013c-3.3213-.1748-6.6904-.2686-10.0146-.2793l-.0039,1c3.3086.0107,6.6611.1035,9.9658.2773l.0527-.998Z"/>
  </g>
</svg>